<svg width="72" height="72" viewBox="0 0 72 72" fill="none" xmlns="http://www.w3.org/2000/svg">
<path d="M17.722 62.8597C15.8582 62.9289 15.8597 65.6034 17.722 65.672H21.9405C23.8042 65.6029 23.8028 62.9283 21.9405 62.8597H21.2374V53.0165C21.2374 52.24 20.6077 51.6104 19.8312 51.6104H17.7221C15.8584 51.6795 15.8598 54.3541 17.7221 54.4227H18.4251V62.8597H17.722Z" fill="#6C757D"/>
<path d="M28.9714 65.6724C31.2975 65.6724 33.1899 63.7799 33.1899 61.4538V55.8292C32.9772 50.2391 24.9637 50.2433 24.7529 55.8292V61.4538C24.7529 63.7799 26.6454 65.6724 28.9714 65.6724ZM27.5653 55.8292C27.6363 53.9659 30.3073 53.9673 30.3776 55.8292V61.4538C30.3066 63.3172 27.6356 63.3158 27.5653 61.4538V55.8292Z" fill="#6C757D"/>
<path d="M39.5178 65.6724C41.8439 65.6724 43.7363 63.7799 43.7363 61.4538V55.8292C43.5236 50.2391 35.5101 50.2433 35.2993 55.8292V61.4538C35.2993 63.7799 37.1917 65.6724 39.5178 65.6724ZM38.1117 55.8292C38.1827 53.9659 40.8537 53.9673 40.924 55.8292V61.4538C40.853 63.3172 38.182 63.3158 38.1117 61.4538V55.8292Z" fill="#6C757D"/>
<path d="M47.2645 65.4917C47.9289 65.869 48.7965 65.6388 49.1794 64.9555L55.5072 53.7062C55.8879 53.0294 55.6478 52.1721 54.971 51.7913C54.2943 51.4103 53.4369 51.6506 53.0561 52.3274L46.7283 63.5768C46.3474 64.2536 46.5875 65.1109 47.2645 65.4917Z" fill="#6C757D"/>
<path d="M47.9545 54.4232C49.8182 54.354 49.8168 51.6795 47.9545 51.6108H47.9535C46.0896 51.6803 46.0921 54.3548 47.9545 54.4232Z" fill="#6C757D"/>
<path d="M54.2817 62.8599H54.2806C53.5041 62.8599 52.875 63.4895 52.875 64.266C52.9442 66.1289 55.6191 66.1291 55.6879 64.266C55.6879 63.4895 55.0582 62.8599 54.2817 62.8599Z" fill="#6C757D"/>
<path d="M69.327 52.3136L71.9651 40.6721C72.0596 40.2552 71.9592 39.8179 71.6924 39.4837C71.4257 39.1498 71.0214 38.9552 70.5938 38.9552H63.977C70.6029 20.3174 55.8156 -0.334892 36.0016 0.00413535C16.1912 -0.335595 1.39619 20.3193 8.0267 38.9552H1.40997C0.982352 38.9552 0.578078 39.1498 0.311328 39.4837C0.0445775 39.8179 -0.0558229 40.2552 0.0386716 40.6721L2.67679 52.3136L0.0386716 63.9553C-0.176191 64.8038 0.535049 65.6943 1.41011 65.6722H9.28466V70.5938C9.28466 71.3703 9.91434 72 10.6908 72H61.3129C62.0894 72 62.7191 71.3703 62.7191 70.5938V65.6722H70.5938C71.4688 65.6943 72.1801 64.8038 71.9652 63.9553L69.327 52.3136ZM36.0017 2.81619C57.6355 2.65125 70.4529 27.9352 57.5833 45.2828H14.4203C1.54721 27.9311 14.3756 2.649 36.0017 2.81619ZM3.17035 62.8599L5.48983 52.6244C5.53609 52.4198 5.53609 52.2075 5.48983 52.0029L3.17035 41.7675H9.13462C9.68457 42.9795 10.3158 44.1549 11.0248 45.2828H10.6905C9.91406 45.2828 9.28438 45.9125 9.28438 46.689V62.8599H3.17035ZM59.9066 69.1877H12.0969V48.0951H59.9066V69.1877ZM66.5136 52.6244L68.8331 62.8599H62.7189V46.689C62.7189 45.9125 62.0893 45.2828 61.3128 45.2828H60.9787C61.6877 44.1549 62.3189 42.9795 62.8688 41.7675H68.8331L66.5136 52.0029C66.4674 52.2075 66.4674 52.4198 66.5136 52.6244Z" fill="#6C757D"/>
<path d="M24.0492 38.8142H43.7356C47.6124 38.8142 50.7665 35.6602 50.7665 31.7834V23.3464C50.7665 21.0203 48.874 19.128 46.5479 19.128H39.5171C39.5171 15.2512 36.3631 12.0972 32.4863 12.0972H31.0801C30.3036 12.0972 29.6739 12.7269 29.6739 13.5033V21.9404H24.0492C23.2727 21.9404 22.6431 22.57 22.6431 23.3465V37.4081C22.6431 38.1846 23.2726 38.8142 24.0492 38.8142ZM32.4863 14.9095C34.8123 14.9095 36.7048 16.8019 36.7048 19.128V20.5342C36.7048 21.3107 37.3344 21.9404 38.1109 21.9404H46.5479C47.3233 21.9404 47.9541 22.571 47.9541 23.3464V31.7834C47.9541 34.1095 46.0617 36.0019 43.7356 36.0019H32.4863V14.9095ZM25.4554 24.7527H29.6739V36.0019H25.4554V24.7527Z" fill="#6C757D"/>
</svg>
