<svg width="48" height="48" viewBox="0 0 48 48" fill="none" xmlns="http://www.w3.org/2000/svg">
<g id="data-analysis 1">
<g id="Group">
<path id="Vector" d="M29.5061 37.4117L37.1296 45.0353C39.2473 47.1529 42.9179 47.1529 45.0355 45.0353C47.2943 42.9176 47.2943 39.247 45.0355 37.1294L37.412 29.5058C38.8237 26.8235 39.6708 23.7176 39.6708 20.4706C39.6708 19.9058 39.6708 19.3411 39.5296 18.9176L44.7532 13.6941C45.3179 13.1294 45.3179 12.2823 44.7532 11.7176C44.1884 11.1529 43.3414 11.1529 42.7767 11.7176L38.9649 15.5294C38.1179 12.2823 36.4237 9.45879 34.0237 7.05879C26.5414 -0.423567 14.5414 -0.423567 7.05903 7.05879C-0.423323 14.5411 -0.423323 26.5411 7.05903 34.0235C13.2708 40.2353 22.4473 41.2235 29.5061 37.4117ZM42.9179 39.1058C44.0473 40.2353 44.0473 41.9294 42.9179 43.0588C41.7884 44.1882 40.0943 44.1882 38.9649 43.0588L31.7649 35.8588C32.4708 35.2941 33.1767 34.7294 33.8826 34.0235C34.5884 33.3176 35.1531 32.6117 35.7179 31.9058L42.9179 39.1058ZM9.0355 9.03526C15.3884 2.68232 25.6943 2.68232 32.0473 9.03526C34.4473 11.4353 36.0002 14.5411 36.5649 17.9294L33.7414 20.7529L29.0826 16.0941C28.5179 15.5294 27.6708 15.5294 27.1061 16.0941L19.7649 23.4353L16.5179 20.1882C15.9531 19.6235 15.1061 19.6235 14.5414 20.1882L8.89433 25.8353C8.32962 26.4 8.32962 27.247 8.89433 27.8117C9.45903 28.3764 10.3061 28.3764 10.8708 27.8117L15.5296 23.1529C17.6473 24.847 19.2002 27.9529 20.7531 26.4L28.0943 19.0588L32.7532 23.7176C33.3179 24.2823 34.1649 24.2823 34.7296 23.7176L36.7061 21.7411C36.4237 25.6941 34.7296 29.2235 32.0473 32.047C25.6943 38.4 15.3884 38.4 9.0355 32.047C2.68256 25.6941 2.68256 15.3882 9.0355 9.03526Z" fill="#EF4D5D"/>
</g>
</g>
</svg>
