<svg width="20" height="20" viewBox="0 0 20 20" fill="none" xmlns="http://www.w3.org/2000/svg">
<g clip-path="url(#clip0_1520_990)">
<path fill-rule="evenodd" clip-rule="evenodd" d="M0 17.8571V3.57143C0 3 0.228571 2.45714 0.628571 2.05714C1.02857 1.65714 1.57857 1.42857 2.14286 1.42857H3.57143V0.714286C3.57143 0.321429 3.89286 0 4.28571 0C4.67857 0 5 0.321429 5 0.714286V1.42857H15V0.714286C15 0.321429 15.3214 0 15.7143 0C16.1071 0 16.4286 0.321429 16.4286 0.714286V1.42857H17.8571C18.4286 1.42857 18.9714 1.65714 19.3714 2.05714C19.7714 2.45714 20 3 20 3.57143V17.8571C20 18.4286 19.7714 18.9714 19.3714 19.3714C18.9714 19.7714 18.4214 20 17.8571 20H2.14286C1.57143 20 1.02857 19.7714 0.628571 19.3714C0.228571 18.9714 0 18.4286 0 17.8571ZM1.42857 7.85714V17.8571C1.42857 18.0429 1.50714 18.2286 1.63571 18.3643C1.77143 18.5 1.95 18.5714 2.14286 18.5714H17.8571C18.05 18.5714 18.2286 18.5 18.3643 18.3643C18.5 18.2286 18.5714 18.05 18.5714 17.8571V7.85714H1.42857ZM18.5714 6.42857V3.57143C18.5714 3.38571 18.4929 3.2 18.3643 3.06429C18.2286 2.92857 18.05 2.85714 17.8571 2.85714H16.4286V3.57143C16.4286 3.96429 16.1071 4.28571 15.7143 4.28571C15.3214 4.28571 15 3.96429 15 3.57143V2.85714H5V3.57143C5 3.96429 4.67857 4.28571 4.28571 4.28571C3.89286 4.28571 3.57143 3.96429 3.57143 3.57143V2.85714H2.14286C1.95 2.85714 1.77143 2.92857 1.63571 3.06429C1.5 3.2 1.42857 3.37857 1.42857 3.57143V6.42857H18.5714Z" fill="#888888"/>
</g>
<defs>
<clipPath id="clip0_1520_990">
<rect width="20" height="20" fill="white"/>
</clipPath>
</defs>
</svg>
