<svg width="14" height="13" viewBox="0 0 14 13" fill="none" xmlns="http://www.w3.org/2000/svg">
<path d="M7 3.60938C5.11533 3.60938 3.58203 5.14268 3.58203 7.02734C3.58203 8.91201 5.11533 10.4453 7 10.4453C8.88467 10.4453 10.418 8.91201 10.418 7.02734C10.418 5.14268 8.88467 3.60938 7 3.60938ZM7 9.35156C5.71843 9.35156 4.67578 8.30892 4.67578 7.02734C4.67578 5.74577 5.71843 4.70312 7 4.70312C8.28157 4.70312 9.32422 5.74577 9.32422 7.02734C9.32422 8.30892 8.28157 9.35156 7 9.35156Z" fill="black"/>
<path d="M12.3594 1.96875H10.3476C10.2839 1.96875 10.2265 1.934 10.1969 1.87778L9.64037 0.708203C9.63884 0.705004 9.6373 0.701832 9.63569 0.69866C9.42025 0.267723 8.98707 0 8.50525 0H5.53372C5.05189 0 4.61871 0.267723 4.40327 0.698687C4.40166 0.701859 4.40013 0.705031 4.3986 0.70823L3.84199 1.87786C3.81246 1.934 3.75509 1.96875 3.69141 1.96875H1.64062C0.735984 1.96875 0 2.70473 0 3.60938V10.9922C0 11.8968 0.735984 12.6328 1.64062 12.6328H12.3594C13.264 12.6328 14 11.8968 14 10.9922V3.60938C14 2.70473 13.264 1.96875 12.3594 1.96875ZM12.9062 10.9922C12.9062 11.2937 12.6609 11.539 12.3594 11.539H1.64062C1.33908 11.539 1.09375 11.2937 1.09375 10.9922V3.60938C1.09375 3.30783 1.33908 3.0625 1.64062 3.0625H3.69141C4.1732 3.0625 4.60638 2.7948 4.82185 2.36387C4.82346 2.3607 4.825 2.3575 4.82655 2.3543L5.38316 1.18467C5.41267 1.1285 5.47004 1.09375 5.53372 1.09375H8.50525C8.56893 1.09375 8.6263 1.1285 8.6558 1.18464L9.21241 2.35427C9.21397 2.35747 9.2155 2.36067 9.21711 2.36384C9.43258 2.79478 9.86576 3.06247 10.3476 3.06247H12.3594C12.6609 3.06247 12.9062 3.3078 12.9062 3.60935V10.9922Z" fill="black"/>
<path d="M11.8125 4.15625H10.7188V5.25H11.8125V4.15625Z" fill="black"/>
</svg>
