<svg width="48" height="48" viewBox="0 0 48 48" fill="none" xmlns="http://www.w3.org/2000/svg">
<path d="M21.5995 20.3151L19.1651 17.8806C18.8992 17.6148 18.4683 17.6148 18.2024 17.8806C17.9366 18.1465 17.9366 18.5774 18.2024 18.8433L18.2024 18.8433L21.1184 21.7588L21.1184 21.7588L21.5995 20.3151Z" fill="#EF4D5D" stroke="#EF4D5D" stroke-width="0.2"/>
<path d="M23.0573 27.6152C28.1597 27.6152 32.3107 23.4642 32.3107 18.3622C32.3107 13.2598 28.1597 9.10874 23.0573 9.10874C17.9548 9.10874 13.8038 13.2598 13.8038 18.3622C13.8038 23.4642 17.9548 27.6152 23.0573 27.6152ZM23.0573 10.4697C27.4089 10.4697 30.9492 14.0101 30.9492 18.3617C30.9492 22.7129 27.4089 26.2537 23.0573 26.2537C18.7056 26.2537 15.1653 22.7134 15.1653 18.3617C15.1653 14.0106 18.7056 10.4697 23.0573 10.4697Z" fill="#EF4D5D" stroke="#EF4D5D" stroke-width="0.2"/>
<mask id="path-3-outside-1_2442_461" maskUnits="userSpaceOnUse" x="7.91553" y="3.80005" width="30" height="38" fill="black">
<rect fill="white" x="7.91553" y="3.80005" width="30" height="38"/>
<path d="M31.9371 27.994C31.9677 27.9859 31.9965 27.9773 32.0275 27.9692C32.9622 27.719 33.9279 27.4598 34.4985 26.6759C35.0632 25.8997 35.0128 24.9061 34.9642 23.9453C34.9323 23.3126 34.9021 22.715 35.0502 22.2592C35.1883 21.8339 35.5533 21.3857 35.9394 20.911C36.5298 20.1856 37.1989 19.3634 37.1989 18.3622C37.1989 17.3609 36.5298 16.5388 35.9394 15.8134C35.5528 15.3386 35.1879 14.8904 35.0502 14.4652C34.9021 14.0089 34.9327 13.4117 34.9647 12.779C35.0133 11.8178 35.0637 10.8242 34.4989 10.0484C33.9283 9.26407 32.9622 9.00532 32.028 8.75467C31.4214 8.59177 30.8481 8.43832 30.4683 8.16202C30.0961 7.89112 29.7775 7.39837 29.4396 6.87592C28.9356 6.09607 28.3641 5.21227 27.4285 4.90852C26.5326 4.61827 25.6119 4.96882 24.7209 5.30902C24.1462 5.52817 23.5522 5.75497 23.0572 5.75497C22.5622 5.75497 21.9682 5.52817 21.394 5.30857C20.5035 4.96882 19.5828 4.61692 18.6864 4.90852C17.7513 5.21227 17.1798 6.09607 16.6753 6.87592C16.3378 7.39792 16.0192 7.89067 15.6471 8.16157C15.2673 8.43787 14.694 8.59177 14.0869 8.75422C13.1527 9.00442 12.1866 9.26362 11.616 10.048C11.0512 10.8238 11.1016 11.8178 11.1502 12.7786C11.1822 13.4113 11.2123 14.0084 11.0643 14.4643C10.9261 14.8895 10.5612 15.3377 10.1751 15.8125C9.58468 16.5379 8.91553 17.36 8.91553 18.3617C8.91553 19.363 9.58468 20.1851 10.1751 20.9105C10.5616 21.3853 10.9266 21.8335 11.0643 22.2583C11.2123 22.7146 11.1817 23.3117 11.1498 23.9444C11.1012 24.9052 11.0508 25.8988 11.6155 26.675C12.1861 27.4589 13.1523 27.7181 14.0865 27.9683C14.2615 28.0151 14.4316 28.0624 14.5972 28.111L10.036 36.0156C9.91768 36.2208 9.93568 36.4774 10.0815 36.6637C10.2277 36.8504 10.4721 36.93 10.6993 36.8639L15.5431 35.4689L16.7572 40.359C16.8144 40.589 17.0052 40.7609 17.2396 40.7942C17.2666 40.7982 17.2941 40.8 17.3211 40.8C17.5263 40.8 17.7189 40.6907 17.8237 40.5098L23.3029 31.0207L28.7785 40.5098C28.8834 40.6907 29.076 40.8 29.2812 40.8C29.3082 40.8 29.3352 40.7982 29.3626 40.7942C29.5971 40.7609 29.7883 40.589 29.845 40.359L31.0582 35.4685L35.902 36.8634C36.1306 36.9296 36.3741 36.8495 36.5199 36.6632C36.6657 36.4764 36.6837 36.2204 36.5653 36.0152L31.9371 27.994ZM12.5547 25.9924C12.2316 25.5482 12.2694 24.7981 12.3099 24.0034C12.3459 23.2933 12.3832 22.5593 12.169 21.8996C11.9638 21.2687 11.5125 20.7139 11.076 20.1775C10.5621 19.5466 10.077 18.9503 10.077 18.3617C10.077 17.7731 10.5625 17.1769 11.076 16.5455C11.5125 16.0091 11.9643 15.4543 12.169 14.8229C12.3832 14.1637 12.3459 13.4297 12.3103 12.7196C12.2703 11.9254 12.232 11.1748 12.5551 10.7306C12.8841 10.2784 13.6144 10.0826 14.388 9.87517C15.0702 9.69247 15.7762 9.50302 16.3306 9.09982C16.8774 8.70202 17.2707 8.09407 17.6509 7.50547C18.0888 6.82822 18.5028 6.18832 19.045 6.01237C19.5517 5.84812 20.2452 6.11227 20.9796 6.39262C21.6523 6.64957 22.348 6.91507 23.0572 6.91507C23.7664 6.91507 24.4621 6.64957 25.1349 6.39262C25.8693 6.11272 26.5614 5.84632 27.0703 6.01237C27.613 6.18832 28.0266 6.82822 28.4644 7.50547C28.8447 8.09362 29.238 8.70202 29.7847 9.09982C30.3387 9.50302 31.0447 9.69247 31.7269 9.87517C32.5005 10.0826 33.2308 10.2784 33.5598 10.7306C33.8829 11.1748 33.8451 11.9249 33.8046 12.7196C33.7686 13.4293 33.7312 14.1632 33.9454 14.8229C34.1506 15.4538 34.602 16.0087 35.0389 16.5451C35.5524 17.176 36.0379 17.7722 36.0379 18.3608C36.0379 18.949 35.5528 19.5452 35.0389 20.1766C34.602 20.7134 34.1506 21.2683 33.9454 21.8996C33.7312 22.5589 33.7686 23.2933 33.8041 24.0029C33.8442 24.7972 33.8824 25.5473 33.5593 25.9919C33.2304 26.4437 32.5 26.6399 31.7269 26.8469C31.0443 27.0296 30.3382 27.2191 29.7838 27.6223C29.2371 28.0201 28.8438 28.6285 28.4635 29.2166C28.0257 29.8943 27.6117 30.5338 27.0694 30.7102C26.5623 30.8758 25.8688 30.6098 25.1344 30.3299C24.7029 30.1652 24.2614 30.0041 23.8141 29.9047C23.8015 29.9011 23.7889 29.8988 23.7759 29.8961C23.5378 29.8453 23.2984 29.8075 23.0568 29.8075C22.3476 29.8075 21.6519 30.073 20.9791 30.3299C20.2452 30.6098 19.5517 30.8749 19.0437 30.7102C18.501 30.5342 18.0874 29.8943 17.6496 29.2171C17.2693 28.6289 16.876 28.0205 16.3293 27.6227C16.1506 27.4927 15.9526 27.3905 15.7488 27.2978C15.7456 27.296 15.7443 27.2929 15.7407 27.2906C15.7276 27.283 15.7132 27.2834 15.6997 27.2767C15.283 27.0944 14.8321 26.9662 14.3866 26.8469C13.614 26.6404 12.8836 26.4442 12.5547 25.9924ZM17.5375 38.6828L16.5255 34.6045C16.4877 34.4515 16.3887 34.3205 16.2523 34.2413C16.1155 34.1621 15.9522 34.1423 15.8014 34.1864L11.7613 35.3501L15.6678 28.5812C16.0305 28.8553 16.3441 29.3363 16.6753 29.8484C17.1793 30.6283 17.7508 31.5121 18.6859 31.8158C19.5828 32.1074 20.5039 31.7555 21.394 31.4158C21.538 31.3609 21.6834 31.3051 21.8283 31.2529L17.5375 38.6828ZM30.8008 34.186C30.6492 34.1419 30.4863 34.1617 30.3499 34.2409C30.2131 34.3201 30.1146 34.451 30.0768 34.604L29.0647 38.6819L24.913 31.4869C25.5093 31.7123 26.1172 31.9234 26.7211 31.9234C26.9574 31.9234 27.1936 31.891 27.4281 31.8149C28.3632 31.5112 28.9342 30.6274 29.4387 29.8475C29.7762 29.3255 30.0952 28.8323 30.4669 28.5614C30.5682 28.4876 30.6847 28.4237 30.8103 28.3652L34.8405 35.3492L30.8008 34.186Z"/>
</mask>
<path d="M31.9371 27.994C31.9677 27.9859 31.9965 27.9773 32.0275 27.9692C32.9622 27.719 33.9279 27.4598 34.4985 26.6759C35.0632 25.8997 35.0128 24.9061 34.9642 23.9453C34.9323 23.3126 34.9021 22.715 35.0502 22.2592C35.1883 21.8339 35.5533 21.3857 35.9394 20.911C36.5298 20.1856 37.1989 19.3634 37.1989 18.3622C37.1989 17.3609 36.5298 16.5388 35.9394 15.8134C35.5528 15.3386 35.1879 14.8904 35.0502 14.4652C34.9021 14.0089 34.9327 13.4117 34.9647 12.779C35.0133 11.8178 35.0637 10.8242 34.4989 10.0484C33.9283 9.26407 32.9622 9.00532 32.028 8.75467C31.4214 8.59177 30.8481 8.43832 30.4683 8.16202C30.0961 7.89112 29.7775 7.39837 29.4396 6.87592C28.9356 6.09607 28.3641 5.21227 27.4285 4.90852C26.5326 4.61827 25.6119 4.96882 24.7209 5.30902C24.1462 5.52817 23.5522 5.75497 23.0572 5.75497C22.5622 5.75497 21.9682 5.52817 21.394 5.30857C20.5035 4.96882 19.5828 4.61692 18.6864 4.90852C17.7513 5.21227 17.1798 6.09607 16.6753 6.87592C16.3378 7.39792 16.0192 7.89067 15.6471 8.16157C15.2673 8.43787 14.694 8.59177 14.0869 8.75422C13.1527 9.00442 12.1866 9.26362 11.616 10.048C11.0512 10.8238 11.1016 11.8178 11.1502 12.7786C11.1822 13.4113 11.2123 14.0084 11.0643 14.4643C10.9261 14.8895 10.5612 15.3377 10.1751 15.8125C9.58468 16.5379 8.91553 17.36 8.91553 18.3617C8.91553 19.363 9.58468 20.1851 10.1751 20.9105C10.5616 21.3853 10.9266 21.8335 11.0643 22.2583C11.2123 22.7146 11.1817 23.3117 11.1498 23.9444C11.1012 24.9052 11.0508 25.8988 11.6155 26.675C12.1861 27.4589 13.1523 27.7181 14.0865 27.9683C14.2615 28.0151 14.4316 28.0624 14.5972 28.111L10.036 36.0156C9.91768 36.2208 9.93568 36.4774 10.0815 36.6637C10.2277 36.8504 10.4721 36.93 10.6993 36.8639L15.5431 35.4689L16.7572 40.359C16.8144 40.589 17.0052 40.7609 17.2396 40.7942C17.2666 40.7982 17.2941 40.8 17.3211 40.8C17.5263 40.8 17.7189 40.6907 17.8237 40.5098L23.3029 31.0207L28.7785 40.5098C28.8834 40.6907 29.076 40.8 29.2812 40.8C29.3082 40.8 29.3352 40.7982 29.3626 40.7942C29.5971 40.7609 29.7883 40.589 29.845 40.359L31.0582 35.4685L35.902 36.8634C36.1306 36.9296 36.3741 36.8495 36.5199 36.6632C36.6657 36.4764 36.6837 36.2204 36.5653 36.0152L31.9371 27.994ZM12.5547 25.9924C12.2316 25.5482 12.2694 24.7981 12.3099 24.0034C12.3459 23.2933 12.3832 22.5593 12.169 21.8996C11.9638 21.2687 11.5125 20.7139 11.076 20.1775C10.5621 19.5466 10.077 18.9503 10.077 18.3617C10.077 17.7731 10.5625 17.1769 11.076 16.5455C11.5125 16.0091 11.9643 15.4543 12.169 14.8229C12.3832 14.1637 12.3459 13.4297 12.3103 12.7196C12.2703 11.9254 12.232 11.1748 12.5551 10.7306C12.8841 10.2784 13.6144 10.0826 14.388 9.87517C15.0702 9.69247 15.7762 9.50302 16.3306 9.09982C16.8774 8.70202 17.2707 8.09407 17.6509 7.50547C18.0888 6.82822 18.5028 6.18832 19.045 6.01237C19.5517 5.84812 20.2452 6.11227 20.9796 6.39262C21.6523 6.64957 22.348 6.91507 23.0572 6.91507C23.7664 6.91507 24.4621 6.64957 25.1349 6.39262C25.8693 6.11272 26.5614 5.84632 27.0703 6.01237C27.613 6.18832 28.0266 6.82822 28.4644 7.50547C28.8447 8.09362 29.238 8.70202 29.7847 9.09982C30.3387 9.50302 31.0447 9.69247 31.7269 9.87517C32.5005 10.0826 33.2308 10.2784 33.5598 10.7306C33.8829 11.1748 33.8451 11.9249 33.8046 12.7196C33.7686 13.4293 33.7312 14.1632 33.9454 14.8229C34.1506 15.4538 34.602 16.0087 35.0389 16.5451C35.5524 17.176 36.0379 17.7722 36.0379 18.3608C36.0379 18.949 35.5528 19.5452 35.0389 20.1766C34.602 20.7134 34.1506 21.2683 33.9454 21.8996C33.7312 22.5589 33.7686 23.2933 33.8041 24.0029C33.8442 24.7972 33.8824 25.5473 33.5593 25.9919C33.2304 26.4437 32.5 26.6399 31.7269 26.8469C31.0443 27.0296 30.3382 27.2191 29.7838 27.6223C29.2371 28.0201 28.8438 28.6285 28.4635 29.2166C28.0257 29.8943 27.6117 30.5338 27.0694 30.7102C26.5623 30.8758 25.8688 30.6098 25.1344 30.3299C24.7029 30.1652 24.2614 30.0041 23.8141 29.9047C23.8015 29.9011 23.7889 29.8988 23.7759 29.8961C23.5378 29.8453 23.2984 29.8075 23.0568 29.8075C22.3476 29.8075 21.6519 30.073 20.9791 30.3299C20.2452 30.6098 19.5517 30.8749 19.0437 30.7102C18.501 30.5342 18.0874 29.8943 17.6496 29.2171C17.2693 28.6289 16.876 28.0205 16.3293 27.6227C16.1506 27.4927 15.9526 27.3905 15.7488 27.2978C15.7456 27.296 15.7443 27.2929 15.7407 27.2906C15.7276 27.283 15.7132 27.2834 15.6997 27.2767C15.283 27.0944 14.8321 26.9662 14.3866 26.8469C13.614 26.6404 12.8836 26.4442 12.5547 25.9924ZM17.5375 38.6828L16.5255 34.6045C16.4877 34.4515 16.3887 34.3205 16.2523 34.2413C16.1155 34.1621 15.9522 34.1423 15.8014 34.1864L11.7613 35.3501L15.6678 28.5812C16.0305 28.8553 16.3441 29.3363 16.6753 29.8484C17.1793 30.6283 17.7508 31.5121 18.6859 31.8158C19.5828 32.1074 20.5039 31.7555 21.394 31.4158C21.538 31.3609 21.6834 31.3051 21.8283 31.2529L17.5375 38.6828ZM30.8008 34.186C30.6492 34.1419 30.4863 34.1617 30.3499 34.2409C30.2131 34.3201 30.1146 34.451 30.0768 34.604L29.0647 38.6819L24.913 31.4869C25.5093 31.7123 26.1172 31.9234 26.7211 31.9234C26.9574 31.9234 27.1936 31.891 27.4281 31.8149C28.3632 31.5112 28.9342 30.6274 29.4387 29.8475C29.7762 29.3255 30.0952 28.8323 30.4669 28.5614C30.5682 28.4876 30.6847 28.4237 30.8103 28.3652L34.8405 35.3492L30.8008 34.186Z" fill="#EF4D5D"/>
<path d="M31.9371 27.994C31.9677 27.9859 31.9965 27.9773 32.0275 27.9692C32.9622 27.719 33.9279 27.4598 34.4985 26.6759C35.0632 25.8997 35.0128 24.9061 34.9642 23.9453C34.9323 23.3126 34.9021 22.715 35.0502 22.2592C35.1883 21.8339 35.5533 21.3857 35.9394 20.911C36.5298 20.1856 37.1989 19.3634 37.1989 18.3622C37.1989 17.3609 36.5298 16.5388 35.9394 15.8134C35.5528 15.3386 35.1879 14.8904 35.0502 14.4652C34.9021 14.0089 34.9327 13.4117 34.9647 12.779C35.0133 11.8178 35.0637 10.8242 34.4989 10.0484C33.9283 9.26407 32.9622 9.00532 32.028 8.75467C31.4214 8.59177 30.8481 8.43832 30.4683 8.16202C30.0961 7.89112 29.7775 7.39837 29.4396 6.87592C28.9356 6.09607 28.3641 5.21227 27.4285 4.90852C26.5326 4.61827 25.6119 4.96882 24.7209 5.30902C24.1462 5.52817 23.5522 5.75497 23.0572 5.75497C22.5622 5.75497 21.9682 5.52817 21.394 5.30857C20.5035 4.96882 19.5828 4.61692 18.6864 4.90852C17.7513 5.21227 17.1798 6.09607 16.6753 6.87592C16.3378 7.39792 16.0192 7.89067 15.6471 8.16157C15.2673 8.43787 14.694 8.59177 14.0869 8.75422C13.1527 9.00442 12.1866 9.26362 11.616 10.048C11.0512 10.8238 11.1016 11.8178 11.1502 12.7786C11.1822 13.4113 11.2123 14.0084 11.0643 14.4643C10.9261 14.8895 10.5612 15.3377 10.1751 15.8125C9.58468 16.5379 8.91553 17.36 8.91553 18.3617C8.91553 19.363 9.58468 20.1851 10.1751 20.9105C10.5616 21.3853 10.9266 21.8335 11.0643 22.2583C11.2123 22.7146 11.1817 23.3117 11.1498 23.9444C11.1012 24.9052 11.0508 25.8988 11.6155 26.675C12.1861 27.4589 13.1523 27.7181 14.0865 27.9683C14.2615 28.0151 14.4316 28.0624 14.5972 28.111L10.036 36.0156C9.91768 36.2208 9.93568 36.4774 10.0815 36.6637C10.2277 36.8504 10.4721 36.93 10.6993 36.8639L15.5431 35.4689L16.7572 40.359C16.8144 40.589 17.0052 40.7609 17.2396 40.7942C17.2666 40.7982 17.2941 40.8 17.3211 40.8C17.5263 40.8 17.7189 40.6907 17.8237 40.5098L23.3029 31.0207L28.7785 40.5098C28.8834 40.6907 29.076 40.8 29.2812 40.8C29.3082 40.8 29.3352 40.7982 29.3626 40.7942C29.5971 40.7609 29.7883 40.589 29.845 40.359L31.0582 35.4685L35.902 36.8634C36.1306 36.9296 36.3741 36.8495 36.5199 36.6632C36.6657 36.4764 36.6837 36.2204 36.5653 36.0152L31.9371 27.994ZM12.5547 25.9924C12.2316 25.5482 12.2694 24.7981 12.3099 24.0034C12.3459 23.2933 12.3832 22.5593 12.169 21.8996C11.9638 21.2687 11.5125 20.7139 11.076 20.1775C10.5621 19.5466 10.077 18.9503 10.077 18.3617C10.077 17.7731 10.5625 17.1769 11.076 16.5455C11.5125 16.0091 11.9643 15.4543 12.169 14.8229C12.3832 14.1637 12.3459 13.4297 12.3103 12.7196C12.2703 11.9254 12.232 11.1748 12.5551 10.7306C12.8841 10.2784 13.6144 10.0826 14.388 9.87517C15.0702 9.69247 15.7762 9.50302 16.3306 9.09982C16.8774 8.70202 17.2707 8.09407 17.6509 7.50547C18.0888 6.82822 18.5028 6.18832 19.045 6.01237C19.5517 5.84812 20.2452 6.11227 20.9796 6.39262C21.6523 6.64957 22.348 6.91507 23.0572 6.91507C23.7664 6.91507 24.4621 6.64957 25.1349 6.39262C25.8693 6.11272 26.5614 5.84632 27.0703 6.01237C27.613 6.18832 28.0266 6.82822 28.4644 7.50547C28.8447 8.09362 29.238 8.70202 29.7847 9.09982C30.3387 9.50302 31.0447 9.69247 31.7269 9.87517C32.5005 10.0826 33.2308 10.2784 33.5598 10.7306C33.8829 11.1748 33.8451 11.9249 33.8046 12.7196C33.7686 13.4293 33.7312 14.1632 33.9454 14.8229C34.1506 15.4538 34.602 16.0087 35.0389 16.5451C35.5524 17.176 36.0379 17.7722 36.0379 18.3608C36.0379 18.949 35.5528 19.5452 35.0389 20.1766C34.602 20.7134 34.1506 21.2683 33.9454 21.8996C33.7312 22.5589 33.7686 23.2933 33.8041 24.0029C33.8442 24.7972 33.8824 25.5473 33.5593 25.9919C33.2304 26.4437 32.5 26.6399 31.7269 26.8469C31.0443 27.0296 30.3382 27.2191 29.7838 27.6223C29.2371 28.0201 28.8438 28.6285 28.4635 29.2166C28.0257 29.8943 27.6117 30.5338 27.0694 30.7102C26.5623 30.8758 25.8688 30.6098 25.1344 30.3299C24.7029 30.1652 24.2614 30.0041 23.8141 29.9047C23.8015 29.9011 23.7889 29.8988 23.7759 29.8961C23.5378 29.8453 23.2984 29.8075 23.0568 29.8075C22.3476 29.8075 21.6519 30.073 20.9791 30.3299C20.2452 30.6098 19.5517 30.8749 19.0437 30.7102C18.501 30.5342 18.0874 29.8943 17.6496 29.2171C17.2693 28.6289 16.876 28.0205 16.3293 27.6227C16.1506 27.4927 15.9526 27.3905 15.7488 27.2978C15.7456 27.296 15.7443 27.2929 15.7407 27.2906C15.7276 27.283 15.7132 27.2834 15.6997 27.2767C15.283 27.0944 14.8321 26.9662 14.3866 26.8469C13.614 26.6404 12.8836 26.4442 12.5547 25.9924ZM17.5375 38.6828L16.5255 34.6045C16.4877 34.4515 16.3887 34.3205 16.2523 34.2413C16.1155 34.1621 15.9522 34.1423 15.8014 34.1864L11.7613 35.3501L15.6678 28.5812C16.0305 28.8553 16.3441 29.3363 16.6753 29.8484C17.1793 30.6283 17.7508 31.5121 18.6859 31.8158C19.5828 32.1074 20.5039 31.7555 21.394 31.4158C21.538 31.3609 21.6834 31.3051 21.8283 31.2529L17.5375 38.6828ZM30.8008 34.186C30.6492 34.1419 30.4863 34.1617 30.3499 34.2409C30.2131 34.3201 30.1146 34.451 30.0768 34.604L29.0647 38.6819L24.913 31.4869C25.5093 31.7123 26.1172 31.9234 26.7211 31.9234C26.9574 31.9234 27.1936 31.891 27.4281 31.8149C28.3632 31.5112 28.9342 30.6274 29.4387 29.8475C29.7762 29.3255 30.0952 28.8323 30.4669 28.5614C30.5682 28.4876 30.6847 28.4237 30.8103 28.3652L34.8405 35.3492L30.8008 34.186Z" stroke="#EF4D5D" stroke-width="0.4" mask="url(#path-3-outside-1_2442_461)"/>
</svg>
