<svg width="24" height="24" viewBox="0 0 24 24" fill="none" xmlns="http://www.w3.org/2000/svg">
<rect width="23.1351" height="23.1596" rx="6" fill="#F5F5F5"/>
<path d="M17.622 19.1596H5.51388C5.34185 19.1596 5.17686 19.0913 5.05522 18.9696C4.93357 18.848 4.86523 18.683 4.86523 18.511V10.0785C4.86523 10.0212 4.88801 9.96618 4.92856 9.92563C4.96911 9.88508 5.02411 9.8623 5.08145 9.8623C5.13879 9.8623 5.19379 9.88508 5.23434 9.92563C5.27489 9.96618 5.29767 10.0212 5.29767 10.0785V18.511C5.29767 18.5683 5.32045 18.6233 5.361 18.6638C5.40154 18.7044 5.45654 18.7272 5.51388 18.7272H17.622C17.6793 18.7272 17.7343 18.7044 17.7749 18.6638C17.8154 18.6233 17.8382 18.5683 17.8382 18.511V10.0785C17.8382 10.0212 17.861 9.96618 17.9015 9.92563C17.9421 9.88508 17.9971 9.8623 18.0544 9.8623C18.1118 9.8623 18.1668 9.88508 18.2073 9.92563C18.2479 9.96618 18.2706 10.0212 18.2706 10.0785V18.511C18.2706 18.683 18.2023 18.848 18.0807 18.9696C17.959 19.0913 17.794 19.1596 17.622 19.1596Z" fill="black" stroke="black" stroke-width="0.3"/>
<path d="M18.7027 10.2947H14.8778C14.8205 10.2947 14.7655 10.2719 14.7249 10.2314C14.6844 10.1909 14.6616 10.1359 14.6616 10.0785C14.6616 10.0212 14.6844 9.96617 14.7249 9.92562C14.7655 9.88507 14.8205 9.86229 14.8778 9.86229H18.7027V7.70013H4.43243V9.86229H8.2573C8.31464 9.86229 8.36964 9.88507 8.41019 9.92562C8.45073 9.96617 8.47351 10.0212 8.47351 10.0785C8.47351 10.1359 8.45073 10.1909 8.41019 10.2314C8.36964 10.2719 8.31464 10.2947 8.2573 10.2947H4.43243C4.31774 10.2947 4.20775 10.2492 4.12666 10.1681C4.04556 10.087 4 9.97698 4 9.86229V7.70013C4 7.58544 4.04556 7.47545 4.12666 7.39436C4.20775 7.31326 4.31774 7.2677 4.43243 7.2677H18.7027C18.8174 7.2677 18.9274 7.31326 19.0085 7.39436C19.0896 7.47545 19.1351 7.58544 19.1351 7.70013V9.86229C19.1351 9.97698 19.0896 10.087 19.0085 10.1681C18.9274 10.2492 18.8174 10.2947 18.7027 10.2947Z" fill="black" stroke="black" stroke-width="0.3"/>
<path d="M11.5676 7.70019C11.5295 7.70016 11.492 7.69005 11.4591 7.67088C11.4261 7.65171 11.3988 7.62416 11.3799 7.59103C11.361 7.5579 11.3513 7.52037 11.3516 7.48224C11.3519 7.44411 11.3623 7.40674 11.3817 7.37392C11.8558 6.57133 13.0288 4.663 13.6768 4.27641C13.8769 4.14933 14.1004 4.06365 14.3341 4.02444C14.5678 3.98522 14.807 3.99327 15.0376 4.0481C15.2682 4.10292 15.4854 4.20342 15.6765 4.34365C15.8675 4.48388 16.0285 4.66099 16.15 4.86451C16.2714 5.06803 16.3508 5.29384 16.3835 5.52857C16.4162 5.76331 16.4014 6.00221 16.3402 6.23116C16.2789 6.46011 16.1724 6.67446 16.0269 6.86153C15.8814 7.0486 15.6999 7.20459 15.493 7.3203C15.2288 7.47814 14.693 7.60549 13.8997 7.69868C13.8712 7.70258 13.8423 7.70077 13.8145 7.69334C13.7867 7.68591 13.7607 7.67302 13.738 7.65542C13.7152 7.63782 13.6963 7.61586 13.6821 7.59084C13.668 7.56581 13.659 7.53821 13.6556 7.50966C13.6523 7.48111 13.6546 7.45217 13.6626 7.42455C13.6706 7.39693 13.684 7.37117 13.702 7.34879C13.72 7.3264 13.7424 7.30784 13.7677 7.29419C13.793 7.28054 13.8207 7.27206 13.8493 7.26927C14.8091 7.15641 15.152 7.02041 15.2712 6.94927C15.4233 6.85891 15.5559 6.73923 15.6614 6.59718C15.7669 6.45514 15.8431 6.29355 15.8857 6.12181C15.95 5.86492 15.9367 5.59473 15.8475 5.3454C15.7582 5.09606 15.5971 4.87878 15.3844 4.72101C15.1717 4.56323 14.917 4.47205 14.6525 4.459C14.388 4.44594 14.1256 4.51159 13.8984 4.64765C13.4387 4.92203 12.4893 6.34949 11.754 7.59381C11.7349 7.62623 11.7076 7.6531 11.6749 7.67176C11.6422 7.69041 11.6053 7.70021 11.5676 7.70019Z" fill="black" stroke="black" stroke-width="0.3"/>
<path d="M11.5675 7.70019C11.5299 7.70024 11.4929 7.69047 11.4602 7.67185C11.4275 7.65323 11.4003 7.62641 11.3811 7.59403C10.646 6.34949 9.69637 4.92203 9.23691 4.64787C9.08564 4.55048 8.91631 4.48454 8.73901 4.45397C8.56172 4.4234 8.38008 4.42884 8.20493 4.46995C8.02978 4.51107 7.86469 4.58701 7.71951 4.69327C7.57433 4.79953 7.45203 4.93393 7.35988 5.08846C7.26774 5.24298 7.20765 5.41447 7.18318 5.59271C7.15871 5.77096 7.17037 5.9523 7.21747 6.12594C7.26456 6.29958 7.34613 6.46196 7.45731 6.60341C7.56848 6.74486 7.707 6.86248 7.86459 6.94927C7.98351 7.02041 8.32643 7.15641 9.28643 7.26927C9.31504 7.27206 9.34281 7.28054 9.36811 7.29419C9.3934 7.30784 9.41573 7.3264 9.43377 7.34879C9.45181 7.37117 9.4652 7.39693 9.47317 7.42455C9.48113 7.45217 9.48351 7.48111 9.48016 7.50966C9.47681 7.53821 9.4678 7.56581 9.45366 7.59084C9.43951 7.61586 9.42052 7.63782 9.39779 7.65542C9.37506 7.67302 9.34905 7.68591 9.32128 7.69334C9.2935 7.70077 9.26453 7.70258 9.23605 7.69868C8.44318 7.60549 7.90697 7.47814 7.64275 7.3203C7.43592 7.20459 7.25438 7.0486 7.10887 6.86153C6.96336 6.67446 6.85683 6.46011 6.79558 6.23116C6.73433 6.00221 6.71961 5.76331 6.75228 5.52857C6.78495 5.29384 6.86435 5.06803 6.98578 4.86451C7.10722 4.66099 7.26823 4.48388 7.45929 4.34365C7.65036 4.20342 7.86759 4.10292 8.09816 4.0481C8.32873 3.99327 8.56795 3.98522 8.80169 4.02444C9.03542 4.06365 9.25892 4.14933 9.45897 4.27641C10.1076 4.663 11.2795 6.57133 11.7539 7.37392C11.7733 7.40677 11.7837 7.44418 11.784 7.48235C11.7843 7.52052 11.7745 7.55808 11.7555 7.59122C11.7366 7.62436 11.7092 7.6519 11.6762 7.67104C11.6432 7.69018 11.6057 7.70024 11.5675 7.70019Z" fill="black" stroke="black" stroke-width="0.3"/>
<path d="M12.6489 19.1596H10.4867C10.4294 19.1596 10.3744 19.1368 10.3338 19.0962C10.2933 19.0557 10.2705 19.0007 10.2705 18.9433V9.88821C10.2705 9.83087 10.2933 9.77587 10.3338 9.73533C10.3744 9.69478 10.4294 9.672 10.4867 9.672C10.5441 9.672 10.5991 9.69478 10.6396 9.73533C10.6802 9.77587 10.7029 9.83087 10.7029 9.88821V18.7271H12.4327V9.88821C12.4327 9.83087 12.4554 9.77587 12.496 9.73533C12.5365 9.69478 12.5915 9.672 12.6489 9.672C12.7062 9.672 12.7612 9.69478 12.8018 9.73533C12.8423 9.77587 12.8651 9.83087 12.8651 9.88821V18.9433C12.8651 19.0007 12.8423 19.0557 12.8018 19.0962C12.7612 19.1368 12.7062 19.1596 12.6489 19.1596Z" fill="black" stroke="black" stroke-width="0.3"/>
<path d="M12.6356 10.0786H10.4994C10.4421 10.0786 10.3871 10.0558 10.3465 10.0152C10.306 9.97467 10.2832 9.91968 10.2832 9.86233C10.2832 9.80499 10.306 9.74999 10.3465 9.70945C10.3871 9.6689 10.4421 9.64612 10.4994 9.64612H12.6356C12.693 9.64612 12.748 9.6689 12.7885 9.70945C12.8291 9.74999 12.8519 9.80499 12.8519 9.86233C12.8519 9.91968 12.8291 9.97467 12.7885 10.0152C12.748 10.0558 12.693 10.0786 12.6356 10.0786Z" fill="black" stroke="black" stroke-width="0.3"/>
<path d="M13.6632 12.3624C13.6216 12.3624 13.5808 12.3503 13.5458 12.3277C13.5108 12.3051 13.4831 12.2728 13.466 12.2348L11.3705 7.57254C11.3478 7.52037 11.3466 7.46138 11.3671 7.40833C11.3876 7.35529 11.4282 7.31247 11.4801 7.28915C11.532 7.26583 11.591 7.26388 11.6442 7.28374C11.6975 7.3036 11.7409 7.34366 11.7648 7.39524L13.6271 11.5384L13.906 10.6489C13.9152 10.6197 13.9304 10.5928 13.9507 10.5699C13.971 10.547 13.9959 10.5287 14.0238 10.5162C14.0517 10.5037 14.0819 10.4972 14.1125 10.4972C14.1431 10.4973 14.1733 10.5038 14.2012 10.5163L15.0163 10.8839L13.4675 7.57578C13.4555 7.55006 13.4486 7.52221 13.4474 7.49384C13.4461 7.46546 13.4504 7.43712 13.4601 7.41041C13.4698 7.38371 13.4846 7.35917 13.5038 7.33821C13.5229 7.31724 13.546 7.30025 13.5718 7.28821C13.5975 7.27617 13.6253 7.26932 13.6537 7.26804C13.6821 7.26676 13.7104 7.27109 13.7371 7.28076C13.7638 7.29044 13.7884 7.30528 13.8093 7.32444C13.8303 7.3436 13.8473 7.3667 13.8593 7.39243L15.6554 11.2288C15.6741 11.2687 15.6801 11.3135 15.6726 11.3569C15.6651 11.4004 15.6444 11.4405 15.6135 11.472C15.5825 11.5034 15.5427 11.5246 15.4993 11.5327C15.4559 11.5408 15.4111 11.5355 15.3709 11.5174L14.2466 11.0106L13.8704 12.2106C13.8573 12.2525 13.8317 12.2894 13.7972 12.3164C13.7626 12.3435 13.7206 12.3593 13.6768 12.3619L13.6632 12.3624Z" fill="black" stroke="black" stroke-width="0.3"/>
<path d="M9.47181 12.3625H9.45883C9.41503 12.3599 9.37306 12.344 9.33849 12.3169C9.30393 12.2899 9.27841 12.253 9.26532 12.2111L8.8891 11.0111L7.76478 11.5179C7.72454 11.536 7.67973 11.5413 7.63637 11.5332C7.59301 11.5251 7.55317 11.5039 7.5222 11.4725C7.49123 11.4411 7.47061 11.4009 7.46311 11.3575C7.45561 11.314 7.46159 11.2693 7.48024 11.2293L9.27548 7.39231C9.2998 7.34035 9.34375 7.30019 9.39768 7.28064C9.45161 7.2611 9.5111 7.26378 9.56305 7.28809C9.615 7.3124 9.65517 7.35636 9.67472 7.41029C9.69426 7.46422 9.69158 7.5237 9.66727 7.57566L8.11851 10.8838L8.93364 10.5162C8.96152 10.5036 8.99175 10.4971 9.02232 10.4971C9.05289 10.4971 9.08313 10.5036 9.11102 10.5161C9.13891 10.5286 9.16383 10.5469 9.18413 10.5698C9.20442 10.5927 9.21964 10.6196 9.22878 10.6487L9.5077 11.5383L11.3702 7.39533C11.3942 7.34375 11.4375 7.3037 11.4908 7.28384C11.5441 7.26398 11.603 7.26592 11.6549 7.28924C11.7068 7.31256 11.7474 7.35538 11.7679 7.40843C11.7884 7.46147 11.7872 7.52047 11.7646 7.57263L9.669 12.2349C9.65191 12.2729 9.62421 12.3052 9.58923 12.3278C9.55425 12.3504 9.51347 12.3625 9.47181 12.3625Z" fill="black" stroke="black" stroke-width="0.3"/>
</svg>
