<svg width="48" height="49" viewBox="0 0 48 49" fill="none" xmlns="http://www.w3.org/2000/svg">
<path d="M20.0309 48.0346C18.8642 48.0346 17.7696 47.5107 16.9518 46.5396C16.5446 46.0569 16.6063 45.3351 17.0902 44.9279C17.5717 44.5196 18.2935 44.5825 18.7018 45.0663C19.1605 45.6108 19.7084 45.8293 20.3341 45.7195C21.0741 45.5868 21.7707 45.0011 22.0269 44.2931C22.242 43.6972 22.1196 43.1184 21.6597 42.5739C21.2525 42.0912 21.3143 41.3695 21.797 40.9623C22.2797 40.5539 23.0015 40.6168 23.4087 41.0995C24.3889 42.264 24.6703 43.712 24.1773 45.072C23.6397 46.5567 22.2889 47.6948 20.7344 47.9728C20.4988 48.014 20.2631 48.0346 20.0309 48.0346Z" fill="black"/>
<path d="M22.5348 42.98C22.2088 42.98 21.8863 42.8416 21.6598 42.574C19.4991 40.0095 17.5535 37.238 15.8766 34.3339C15.5609 33.786 15.7485 33.0871 16.2953 32.7714C16.8432 32.4557 17.5409 32.6433 17.8577 33.19C19.4671 35.9775 21.3338 38.6392 23.4087 41.0996C23.8159 41.5823 23.7541 42.304 23.2715 42.7112C23.0564 42.892 22.7945 42.98 22.5348 42.98Z" fill="black"/>
<path d="M17.8268 46.9468C17.5008 46.9468 17.1782 46.8084 16.9518 46.5407C14.5589 43.7006 12.4028 40.6294 10.5452 37.4118C10.2295 36.8639 10.4171 36.1651 10.9638 35.8494C11.5117 35.5325 12.2106 35.7201 12.5263 36.268C14.3164 39.3689 16.3936 42.3291 18.7007 45.0663C19.1079 45.549 19.0461 46.2708 18.5634 46.678C18.3495 46.8587 18.0876 46.9468 17.8268 46.9468Z" fill="black"/>
<path d="M17.8565 34.3339C17.2754 34.3339 16.7779 33.8924 16.7196 33.3022C16.6578 32.6742 17.1176 32.1137 17.7456 32.052L42.5986 29.611C43.2392 29.5539 43.7871 30.0091 43.8488 30.6371C43.9106 31.265 43.4508 31.8255 42.8228 31.8873L17.9698 34.3282C17.9309 34.3316 17.8943 34.3339 17.8565 34.3339Z" fill="black"/>
<path d="M12.1683 24.4809C11.9372 24.4809 11.705 24.4111 11.5026 24.267C10.989 23.8987 10.8712 23.1849 11.2395 22.6702L25.7798 2.36844C26.147 1.85486 26.8607 1.7359 27.3766 2.10536C27.8902 2.47367 28.008 3.18742 27.6397 3.70214L13.0994 24.0028C12.8752 24.315 12.524 24.4809 12.1683 24.4809Z" fill="black"/>
<path d="M17.8588 34.3337C17.463 34.3337 17.0787 34.129 16.8671 33.7618L11.1789 23.9089C10.8632 23.361 11.0508 22.6621 11.5975 22.3464C12.1431 22.0296 12.8431 22.2183 13.16 22.7651L18.8482 32.618C19.1639 33.1659 18.9763 33.8647 18.4296 34.1804C18.25 34.2845 18.0521 34.3337 17.8588 34.3337Z" fill="black"/>
<path d="M4.85813 28.7027C4.46236 28.7027 4.07804 28.4979 3.86643 28.1308C3.55074 27.5829 3.73832 26.884 4.28507 26.5683L11.5975 22.3464C12.1432 22.0296 12.8432 22.2183 13.16 22.7651C13.4757 23.313 13.2881 24.0118 12.7414 24.3275L5.4289 28.5494C5.24932 28.6535 5.05258 28.7027 4.85813 28.7027Z" fill="black"/>
<path d="M10.5464 38.5557C10.1506 38.5557 9.76627 38.351 9.55466 37.9838C9.23897 37.4359 9.42656 36.7371 9.9733 36.4214L17.2858 32.1995C17.8314 31.8838 18.5314 32.0714 18.8482 32.6181C19.1639 33.166 18.9764 33.8649 18.4296 34.1806L11.1171 38.4025C10.9375 38.5066 10.7408 38.5557 10.5464 38.5557Z" fill="black"/>
<path d="M46.2681 21.834C46.1491 21.834 46.0302 21.8146 45.9112 21.7768C45.3107 21.5801 44.9836 20.9327 45.1814 20.3333C46.1445 17.4017 45.7877 14.1464 44.2023 11.4023C42.6193 8.66287 39.9827 6.7321 36.9665 6.10414C36.3477 5.97488 35.9508 5.3698 36.08 4.75099C36.2081 4.13218 36.8098 3.73413 37.4332 3.86453C41.0842 4.62517 44.2732 6.95629 46.1823 10.2585C48.0936 13.5653 48.5203 17.4978 47.3547 21.0471C47.1957 21.5275 46.7485 21.834 46.2681 21.834Z" fill="black"/>
<path d="M41.6447 20.3151C41.5257 20.3151 41.4068 20.2957 41.2878 20.2579C40.6873 20.0612 40.3602 19.4138 40.558 18.8144C41.0945 17.1822 40.8966 15.368 40.0147 13.8388C39.1305 12.306 37.655 11.2217 35.9679 10.8671C35.3491 10.7367 34.9544 10.1305 35.0848 9.51166C35.2152 8.89285 35.8249 8.49709 36.4403 8.62863C38.7634 9.11819 40.7891 10.6006 41.997 12.6972C43.2037 14.7893 43.4714 17.2794 42.7324 19.5293C42.5723 20.0097 42.1251 20.3151 41.6447 20.3151Z" fill="black"/>
<path d="M10.5464 38.5556C10.1506 38.5556 9.76628 38.3509 9.55468 37.9837L3.86643 28.1308C3.55074 27.5829 3.73832 26.884 4.28507 26.5683C4.83068 26.2526 5.5307 26.4402 5.84754 26.987L11.5358 36.8399C11.8515 37.3878 11.6639 38.0867 11.1171 38.4024C10.9376 38.5064 10.7408 38.5556 10.5464 38.5556Z" fill="black"/>
<path d="M5.63248 39.3072C5.1372 39.3072 4.63849 39.2421 4.14436 39.1094C2.68484 38.7182 1.47238 37.7951 0.730042 36.5095C-0.79239 33.8741 0.148979 30.3614 2.7855 28.839L4.89242 27.6219C5.43917 27.3028 6.13805 27.4938 6.45489 28.0406C6.77173 28.5873 6.58414 29.2873 6.03625 29.603L3.92932 30.8201C2.36686 31.7225 1.80867 33.8043 2.71115 35.3668C3.14809 36.1228 3.86755 36.6673 4.73686 36.9006C5.60617 37.1328 6.50178 37.0219 7.25785 36.5849L9.36478 35.3691C9.91267 35.0534 10.6104 35.2409 10.9272 35.7877C11.2429 36.3356 11.0554 37.0345 10.5086 37.3502L8.40168 38.5661C7.55182 39.0568 6.6013 39.3072 5.63248 39.3072Z" fill="black"/>
<path d="M43.802 33.7825C43.4062 33.7825 43.0219 33.5778 42.8103 33.2106L24.6269 1.71652C24.3112 1.16863 24.4988 0.46975 25.0455 0.154054C25.5923 -0.162785 26.2923 0.0248024 26.608 0.572695L44.7914 32.0668C45.1071 32.6147 44.9195 33.3136 44.3727 33.6292C44.1931 33.7333 43.9964 33.7825 43.802 33.7825Z" fill="black"/>
</svg>
