<svg width="48" height="48" viewBox="0 0 48 48" fill="none" xmlns="http://www.w3.org/2000/svg">
<path d="M24 48C10.7664 48 0 37.2336 0 24C0 10.7664 10.7664 0 24 0C37.2336 0 48 10.7664 48 24C48 37.2336 37.2336 48 24 48ZM24 2.28571C12.0268 2.28571 2.28571 12.0268 2.28571 24C2.28571 35.9732 12.0268 45.7143 24 45.7143C35.9732 45.7143 45.7143 35.9732 45.7143 24C45.7143 12.0268 35.9732 2.28571 24 2.28571Z" fill="black"/>
<path d="M35.1746 25.1429H24C23.3688 25.1429 22.8571 24.6312 22.8571 24V7.61908C22.8571 6.98788 23.3688 6.47623 24 6.47623C24.6312 6.47623 25.1429 6.98788 25.1429 7.61908V22.8572H35.1746C35.8058 22.8572 36.3175 23.3688 36.3175 24C36.3175 24.6312 35.8058 25.1429 35.1746 25.1429Z" fill="black"/>
</svg>
