<svg width="64" height="64" viewBox="0 0 64 64" fill="none" xmlns="http://www.w3.org/2000/svg">
<g id="handshake 1">
<path id="Vector" d="M63.8338 43.5583L59.4157 21.3808C59.3047 20.8235 58.9824 20.3424 58.5082 20.0257C58.0339 19.7092 57.4658 19.5957 56.9087 19.7069L51.2234 20.8395C51.2233 20.8395 51.2233 20.8395 51.2233 20.8395C50.0707 21.0693 49.3197 22.1938 49.5493 23.3464L49.6038 23.6201C46.1963 24.7505 42.0548 25.076 36.9022 20.8248C34.5551 18.8884 31.4963 18.8246 29.2907 20.6659L26.9901 22.5868H14.4613C14.3213 21.7356 13.6711 21.0177 12.7766 20.8394L7.09119 19.7068C6.53369 19.5956 5.96594 19.7091 5.49169 20.0256C5.01744 20.3423 4.69519 20.8235 4.58419 21.3806L0.166064 43.5583C-0.063561 44.7109 0.687439 45.8354 1.84006 46.0651L7.52531 47.1978C7.66494 47.2256 7.80506 47.2394 7.94444 47.2394C8.36119 47.2394 8.76944 47.1163 9.12481 46.879C9.59906 46.5623 9.92144 46.0811 10.0324 45.5239L10.0593 45.3889L23.5449 58.8743C24.3447 59.6741 25.4117 60.1146 26.5489 60.1146C27.6862 60.1146 28.7532 59.6741 29.5528 58.8744C30.1231 58.3041 30.5108 57.5983 30.6864 56.8279L32.5609 58.7024C34.2176 60.3588 36.9128 60.3586 38.5692 58.7021C39.1526 58.1186 39.5304 57.4061 39.7029 56.6558C40.4978 57.4294 41.5473 57.8546 42.6648 57.8546C43.8022 57.8546 44.8691 57.414 45.6689 56.614C46.5897 55.6931 46.9986 54.4515 46.8956 53.2455C47.0157 53.2555 47.1368 53.2606 47.2587 53.2606C48.3961 53.2606 49.4628 52.82 50.2627 52.0201C51.3837 50.8994 51.7667 49.2249 51.3046 47.7381L53.8927 45.1502L53.9672 45.524C54.0782 46.0812 54.4006 46.5624 54.8748 46.8791C55.2303 47.1164 55.6384 47.2395 56.0552 47.2395C56.1944 47.2395 56.3347 47.2258 56.4743 47.1979L62.1596 46.0653C63.3124 45.8354 64.0634 44.7109 63.8338 43.5583ZM8.01419 45.2155C7.99306 45.2296 7.95894 45.2449 7.91619 45.2363L2.23094 44.1036C2.16219 44.09 2.11381 44.0176 2.12756 43.949L6.54569 21.7715C6.55419 21.729 6.58119 21.7031 6.60231 21.689C6.61931 21.6777 6.64444 21.6659 6.67569 21.6659C6.68344 21.6659 6.69181 21.6666 6.70044 21.6684L12.3857 22.801C12.4544 22.8148 12.5028 22.887 12.4891 22.9557L8.07094 45.133C8.06244 45.1756 8.03544 45.2014 8.01419 45.2155ZM48.8488 50.6056C48.4266 51.0279 47.8619 51.2605 47.2589 51.2605C46.6559 51.2605 46.0912 51.028 45.6691 50.6058L35.9966 40.9334C35.6059 40.5428 34.9729 40.5429 34.5823 40.9334C34.1918 41.3239 34.1918 41.957 34.5823 42.3475L44.2548 52.0199C45.1314 52.8965 45.1314 54.3229 44.2548 55.1996C43.8327 55.6219 43.2679 55.8544 42.6648 55.8544C42.0618 55.8544 41.4972 55.622 41.0751 55.1998L30.8544 44.9794C30.4641 44.5887 29.8309 44.589 29.4403 44.9794C29.0498 45.37 29.0498 46.003 29.4404 46.3935L37.1543 54.1074L37.1549 54.108H37.1551C38.0316 54.9845 38.0316 56.4109 37.1549 57.2876C36.2782 58.1645 34.8516 58.1643 33.9752 57.2878L25.7127 49.0254C25.3223 48.635 24.6892 48.6348 24.2984 49.0254C23.9079 49.4159 23.9079 50.049 24.2984 50.4395L28.1389 54.2799C28.5612 54.702 28.7936 55.2668 28.7936 55.8698C28.7936 56.4728 28.5611 57.0374 28.1387 57.4598C27.7167 57.8818 27.1521 58.1143 26.5489 58.1143C25.9458 58.1143 25.3812 57.8818 24.9591 57.4596L10.5292 43.0303L14.2034 24.5868H24.5948L21.6674 27.0309C20.4001 28.0889 19.8557 29.5319 20.1739 30.9895L22.4864 41.5864C22.5441 41.85 22.7057 42.0793 22.9347 42.2219C23.1638 42.3645 23.4408 42.4088 23.7028 42.3441C26.4799 41.6598 28.3368 40.3213 29.3797 38.2523C30.2811 36.464 30.4601 34.4294 30.6496 32.2755C30.6736 32.0018 30.6979 31.7264 30.7238 31.4503C30.7269 31.4269 30.7308 31.4104 30.7339 31.3994C31.0788 31.2541 32.7761 31.5903 35.3757 33.9528L49.3014 48.0815C49.6841 48.9269 49.5073 49.9474 48.8488 50.6056ZM50.1356 46.0789L36.7808 32.5295C36.7682 32.5168 36.7554 32.5044 36.7421 32.4923C34.0763 30.0635 31.5666 28.956 30.0266 29.5304C29.3021 29.8006 28.8317 30.4181 28.7364 31.2243C28.7354 31.2321 28.7346 31.24 28.7338 31.248C28.7069 31.5333 28.6819 31.8175 28.6571 32.1003C28.3328 35.7849 28.0716 38.7521 24.2113 40.1104L22.1278 30.5633C21.9171 29.5983 22.5519 28.8979 22.9491 28.5664L30.5724 22.2014C32.0159 20.9964 34.0481 21.0632 35.6294 22.3678C41.4223 27.1471 46.2718 26.7825 49.9973 25.5956L53.4231 42.7918L50.1356 46.0789ZM61.7689 44.1036L56.0837 45.2363C56.0408 45.2449 56.0067 45.2296 55.9857 45.2155C55.9644 45.2014 55.9374 45.1756 55.9289 45.133L51.5108 22.9556C51.4972 22.887 51.5453 22.8146 51.6141 22.8009L57.2994 21.6682C57.3421 21.6596 57.3763 21.6749 57.3976 21.689C57.4187 21.7031 57.4457 21.7289 57.4542 21.7715L61.8723 43.949C61.8861 44.0178 61.8377 44.09 61.7689 44.1036ZM30.9999 11.8874V4.8855C30.9999 4.33325 31.4477 3.8855 31.9999 3.8855C32.5522 3.8855 32.9999 4.33325 32.9999 4.8855V11.8874C32.9999 12.4396 32.5522 12.8874 31.9999 12.8874C31.4477 12.8874 30.9999 12.4396 30.9999 11.8874ZM21.9898 7.83562C21.7136 7.35737 21.8776 6.74575 22.3558 6.46962C22.8343 6.1935 23.4458 6.3575 23.7218 6.83562L27.2228 12.8994C27.4991 13.3776 27.3351 13.9892 26.8568 14.2654C26.6993 14.3562 26.5273 14.3995 26.3578 14.3995C26.0121 14.3995 25.6761 14.2201 25.4908 13.8994L21.9898 7.83562ZM15.2958 13.5296C15.5718 13.0512 16.1834 12.8872 16.6618 13.1636L22.7257 16.6645C23.2039 16.9406 23.3679 17.5522 23.0917 18.0305C22.9066 18.3513 22.5703 18.5306 22.2247 18.5306C22.0552 18.5306 21.8832 18.4874 21.7257 18.3965L15.6618 14.8956C15.1836 14.6195 15.0196 14.0079 15.2958 13.5296ZM36.7772 12.8995L40.2782 6.83575C40.5543 6.35737 41.1661 6.1935 41.6442 6.46975C42.1224 6.74587 42.2864 7.3575 42.0102 7.83575L38.5092 13.8995C38.3241 14.2202 37.9878 14.3996 37.6422 14.3996C37.4726 14.3996 37.3007 14.3564 37.1432 14.2655C36.6648 13.9894 36.5009 13.3777 36.7772 12.8995ZM41.2743 16.6645L47.3381 13.1636C47.8166 12.8875 48.4281 13.0515 48.7041 13.5296C48.9803 14.0079 48.8163 14.6195 48.3381 14.8956L42.2743 18.3965C42.1168 18.4874 41.9448 18.5306 41.7753 18.5306C41.4296 18.5306 41.0936 18.3513 40.9083 18.0305C40.6322 17.5522 40.7961 16.9406 41.2743 16.6645Z" fill="#F5F5F5"/>
</g>
</svg>
