<svg width="16" height="16" viewBox="0 0 16 16" fill="none" xmlns="http://www.w3.org/2000/svg">
<g id="Group 122">
<path id="Vector" d="M4.22604 1.11875C3.40225 1.11969 2.61246 1.44736 2.02994 2.02987C1.44742 2.61237 1.11974 3.40215 1.11879 4.22595C1.11879 4.22597 1.11879 4.22599 1.11879 4.22601M4.22604 1.11875L1.06879 4.22595L1.11879 4.22601M4.22604 1.11875L4.2261 1.11875M4.22604 1.11875L4.2261 1.11875M1.11879 4.22601V11.774M1.11879 4.22601V11.774M1.11879 11.774L1.11879 11.7741L1.11879 11.774ZM11.7741 1.11875C12.5979 1.11969 13.3877 1.44735 13.9703 2.02986C14.5528 2.61238 14.8805 3.40219 14.8814 4.22601V11.774C14.8805 12.5978 14.5528 13.3876 13.9703 13.9701C13.3877 14.5527 12.5979 14.8803 11.7741 14.8812H4.2261L11.7741 1.06875L11.7741 1.11875M11.7741 1.11875C11.7741 1.11875 11.7741 1.11875 11.7741 1.11875M11.7741 1.11875L11.7741 1.11875M11.7741 1.11875L4.2261 1.11875M11.7741 1.11875H4.2261M11.7741 15.6088H11.7742C12.7909 15.6077 13.7656 15.2033 14.4846 14.4844C15.2035 13.7655 15.6079 12.7908 15.609 11.7741V11.7741V4.22595V4.22589C15.6079 3.2092 15.2035 2.23448 14.4846 1.51558C13.7656 0.796673 12.7909 0.392297 11.7742 0.391162H11.7742L4.22604 0.391162L4.22599 0.391162C3.20929 0.392297 2.23456 0.796673 1.51564 1.51558C0.796723 2.23448 0.392322 3.2092 0.391162 4.22589V4.22595L0.391162 11.774L0.391162 11.7741C0.392322 12.7908 0.796723 13.7655 1.51564 14.4844C2.23456 15.2033 3.20929 15.6077 4.22599 15.6088H4.22604H11.7741Z" fill="black" stroke="black" stroke-width="0.1"/>
<path id="Vector_2" d="M7.84061 13.2901H7.84066C9.28544 13.2884 10.6706 12.7138 11.6922 11.6921C12.7138 10.6705 13.2884 9.28538 13.29 7.8406V7.84054C13.29 6.76274 12.9704 5.70915 12.3716 4.813C11.7728 3.91686 10.9217 3.2184 9.92596 2.80596C8.9302 2.39351 7.8345 2.28561 6.77742 2.49589C5.72034 2.70616 4.74935 3.22518 3.98724 3.98731C3.22513 4.74943 2.70613 5.72043 2.49587 6.77752C2.28561 7.83461 2.39353 8.93031 2.80599 9.92607C3.21845 10.9218 3.91691 11.7729 4.81307 12.3717C5.70922 12.9705 6.76281 13.2901 7.84061 13.2901ZM5.35561 4.1216C6.09118 3.63013 6.95596 3.36782 7.84061 3.36783C9.02644 3.36919 10.1633 3.84082 11.0018 4.67934C11.8403 5.51787 12.312 6.65478 12.3133 7.84063C12.3133 8.72526 12.051 9.59003 11.5596 10.3256C11.0681 11.0611 10.3695 11.6345 9.55223 11.973C8.73493 12.3116 7.83559 12.4001 6.96794 12.2276C6.10029 12.055 5.3033 11.629 4.67776 11.0034C4.05222 10.3779 3.62623 9.5809 3.45365 8.71325C3.28107 7.8456 3.36965 6.94625 3.7082 6.12895C4.04674 5.31164 4.62005 4.61308 5.35561 4.1216Z" fill="black" stroke="black" stroke-width="0.1"/>
<path id="Vector_3" d="M8.01295 9.63493H8.01301C8.443 9.63447 8.85525 9.46346 9.15931 9.15942C9.46337 8.85538 9.63442 8.44314 9.63491 8.01315V8.01309C9.63492 7.69231 9.53981 7.37874 9.36161 7.11202C9.1834 6.8453 8.93011 6.63741 8.63376 6.51464C8.3374 6.39188 8.0113 6.35975 7.69669 6.42231C7.38207 6.48488 7.09308 6.63934 6.86625 6.86615C6.63942 7.09297 6.48494 7.38195 6.42234 7.69656C6.35975 8.01117 6.39185 8.33727 6.51459 8.63364C6.63733 8.93 6.8452 9.18331 7.1119 9.36154C7.37861 9.53977 7.69217 9.63491 8.01295 9.63493ZM7.65448 7.47654C7.76059 7.40564 7.88534 7.3678 8.01295 7.3678V7.3178L8.01289 7.3678C8.18398 7.368 8.348 7.43606 8.46898 7.55705C8.58995 7.67803 8.658 7.84206 8.6582 8.01314C8.65818 8.14074 8.62033 8.26547 8.54943 8.37155C8.47853 8.47766 8.37775 8.56036 8.25985 8.60919C8.14194 8.65802 8.01221 8.67079 7.88705 8.64589C7.76188 8.62099 7.64692 8.55953 7.55668 8.46929C7.46645 8.37905 7.405 8.26408 7.3801 8.13891C7.35521 8.01375 7.36799 7.88401 7.41683 7.76611C7.46566 7.64821 7.54837 7.54744 7.65448 7.47654Z" fill="black" stroke="black" stroke-width="0.1"/>
</g>
</svg>
