<svg width="24" height="24" viewBox="0 0 24 24" fill="none" xmlns="http://www.w3.org/2000/svg">
<rect width="24" height="24" rx="6" fill="#F5F5F5"/>
<path d="M14.5884 9.71663C14.7454 9.71663 14.8728 9.58931 14.8728 9.43225C14.8728 9.2752 14.7454 9.14788 14.5884 9.14788C14.4313 9.14788 14.304 9.2752 14.304 9.43225C14.304 9.58931 14.4313 9.71663 14.5884 9.71663Z" fill="black" stroke="black" stroke-width="0.1"/>
<path d="M15.5259 9.71663C15.6829 9.71663 15.8103 9.58931 15.8103 9.43225C15.8103 9.2752 15.6829 9.14788 15.5259 9.14788C15.3688 9.14788 15.2415 9.2752 15.2415 9.43225C15.2415 9.58931 15.3688 9.71663 15.5259 9.71663Z" fill="black" stroke="black" stroke-width="0.1"/>
<path d="M13.6509 9.71663C13.8079 9.71663 13.9353 9.58931 13.9353 9.43225C13.9353 9.2752 13.8079 9.14788 13.6509 9.14788C13.4938 9.14788 13.3665 9.2752 13.3665 9.43225C13.3665 9.58931 13.4938 9.71663 13.6509 9.71663Z" fill="black" stroke="black" stroke-width="0.1"/>
<path d="M19.8723 14.143L19.8723 14.143C19.9797 14.1865 20.05 14.2908 20.05 14.4065V14.4066C20.05 14.5224 19.9797 14.6267 19.8723 14.6702M19.8723 14.143L19.8536 14.6238M19.8723 14.143C19.3491 13.9312 18.9261 13.5257 18.6909 13.0164C19.5687 12.0188 20.05 10.7458 20.05 9.41147C20.05 6.39998 17.6 3.95 14.5885 3.95C11.9494 3.95 9.69008 5.83152 9.21639 8.42392L9.21639 8.42393M19.8723 14.143L9.21639 8.42393M19.8723 14.6702L19.8536 14.6238M19.8723 14.6702C19.8723 14.6702 19.8723 14.6702 19.8723 14.6702L19.8536 14.6238M19.8723 14.6702C19.5401 14.8047 19.1887 14.8729 18.8281 14.8729C18.1935 14.8729 17.5847 14.6587 17.0927 14.2658M19.8536 14.6238C19.5274 14.7559 19.1824 14.8229 18.8281 14.8229C18.1939 14.8229 17.5861 14.6051 17.0986 14.2063M17.0927 14.2658C17.1024 14.2608 17.1121 14.2557 17.1218 14.2506L17.0986 14.2063M17.0927 14.2658C16.6155 14.5124 16.1062 14.6862 15.576 14.783L15.576 14.783C15.4217 14.811 15.2734 14.7089 15.2452 14.5543M17.0927 14.2658C17.084 14.2589 17.0755 14.252 17.0669 14.245L17.0986 14.2063M17.0986 14.2063L15.2452 14.5543M15.2452 14.5543L15.2944 14.5453L15.2452 14.5543C15.2452 14.5543 15.2452 14.5543 15.2452 14.5543ZM9.21639 8.42393C9.18818 8.57843 9.29051 8.72653 9.44502 8.75478L9.44504 8.75478M9.21639 8.42393L9.44504 8.75478M9.44504 8.75478C9.59929 8.78292 9.74759 8.68065 9.77588 8.52616L9.77588 8.52614M9.44504 8.75478L9.77588 8.52614M9.77588 8.52614C10.2002 6.20414 12.2241 4.51875 14.5885 4.51875C17.2863 4.51875 19.4812 6.71368 19.4812 9.41147C19.4812 10.6624 19.0092 11.8529 18.152 12.7637L18.152 12.7637M9.77588 8.52614L18.152 12.7637M18.152 12.7637C18.078 12.8424 18.0549 12.9563 18.0925 13.0576M18.152 12.7637L17.2889 13.7507M17.2889 13.7507L17.3228 13.7141C17.7336 14.0946 18.2681 14.3042 18.8281 14.3042C18.8883 14.3042 18.9482 14.3018 19.0077 14.297C18.5963 13.9807 18.2762 13.5521 18.0925 13.0576M17.2889 13.7507L17.3228 13.7141C17.2321 13.63 17.0975 13.6142 16.9898 13.675C16.5177 13.9415 16.0077 14.126 15.4738 14.2235L15.4828 14.2727L17.2889 13.7507ZM18.0925 13.0576L18.1394 13.0402M18.0925 13.0576C18.0925 13.0576 18.0925 13.0576 18.0925 13.0576L18.1394 13.0402M18.1394 13.0402C18.3261 13.5429 18.6565 13.9763 19.0813 14.2899L18.1884 12.798C18.1274 12.8628 18.1084 12.9567 18.1394 13.0402Z" fill="black" stroke="black" stroke-width="0.1"/>
<path d="M8.65152 15.6922L8.61624 15.7276C8.56266 15.6742 8.53252 15.6017 8.53252 15.5261V13.6511C8.53252 13.494 8.65981 13.3667 8.81689 13.3667H9.36155C9.75629 13.3667 10.0774 13.6878 10.0774 14.0825C10.0774 14.21 10.0438 14.3298 9.98515 14.4337C10.145 14.5781 10.2457 14.787 10.2457 15.0192L8.65152 15.6922ZM8.65152 15.6922L8.61624 15.7276C8.66956 15.7807 8.74171 15.8104 8.81689 15.8104M8.65152 15.6922L8.81689 15.8104M8.81689 15.8104L9.0856 15.8093M8.81689 15.8104L9.0856 15.8093M9.0856 15.8093C9.2282 15.8088 9.38776 15.8082 9.45664 15.8082M9.0856 15.8093L9.45664 15.8082M9.45664 15.8082C9.89179 15.8082 10.2457 15.4543 10.2457 15.0192L9.45664 15.8082ZM9.45664 15.2394C9.39006 15.2394 9.23963 15.24 9.10127 15.2405V14.7988H9.45664C9.57809 14.7988 9.67696 14.8977 9.67696 15.0191V15.0191C9.67698 15.1406 9.5781 15.2394 9.45664 15.2394ZM9.1013 13.9354H9.36158C9.44262 13.9354 9.50864 14.0015 9.50864 14.0825C9.50864 14.1635 9.44262 14.2296 9.36158 14.2296C9.35598 14.2296 9.35027 14.2297 9.34452 14.2301H9.1013V13.9354Z" fill="black" stroke="black" stroke-width="0.1"/>
<path d="M7.45862 13.5699C7.40826 13.4466 7.28913 13.3669 7.15612 13.3667L7.15599 13.3667L7.41233 13.5888M7.45862 13.5699L7.41233 13.5888M7.45862 13.5699L7.45858 13.5698L7.41233 13.5888M7.45862 13.5699L7.46111 13.5763M7.41233 13.5888L7.41439 13.5941M7.46111 13.5763L7.41439 13.5941M7.46111 13.5763L7.46112 13.5763L7.46121 13.5765M7.46111 13.5763L7.46121 13.5765M7.41439 13.5941L7.46121 13.5765M7.41439 13.5941L7.46121 13.5765M6.89977 13.5888C6.94242 13.4844 7.04324 13.4168 7.15605 13.4167L6.14692 15.4249L6.85089 13.5765L6.85098 13.5763L6.85098 13.5763L6.85348 13.5699L6.85348 13.5699L6.85352 13.5698L6.89977 13.5888ZM6.89977 13.5888L6.8977 13.5941L6.89977 13.5888ZM8.00072 15.7918L8.00071 15.7918C7.854 15.8477 7.68968 15.7741 7.63374 15.6273C7.63373 15.6273 7.63373 15.6273 7.63373 15.6273L7.52798 15.3501H6.78418L6.67843 15.6273L6.67842 15.6273L6.6317 15.6095L8.00072 15.7918ZM8.00072 15.7918C8.14746 15.7359 8.22113 15.5716 8.16524 15.4249L8.11852 15.4427L8.00072 15.7918ZM7.31096 14.7813H7.00107L7.15602 14.3751L7.31096 14.7813Z" fill="black" stroke="black" stroke-width="0.1"/>
<path d="M12.5933 15.0436C12.473 14.9426 12.2936 14.9583 12.1927 15.0786L12.59 15.412L12.6283 15.4442C12.7293 15.3239 12.7136 15.1445 12.5933 15.0436ZM12.5933 15.0436L12.5612 15.0819L12.5933 15.0436C12.5933 15.0436 12.5933 15.0436 12.5933 15.0436ZM12.1453 15.1275L12.1453 15.1275L12.1927 15.0786C12.1778 15.0963 12.1619 15.1128 12.1453 15.1275ZM11.8198 15.8104C12.0894 15.8104 12.3334 15.7216 12.5235 15.5522L12.5032 13.5755C12.5032 13.5755 12.5032 13.5755 12.5032 13.5755C12.301 13.4389 12.0646 13.3666 11.8198 13.3666C11.146 13.3666 10.5979 13.9147 10.5979 14.5885C10.5979 15.2623 11.146 15.8104 11.8198 15.8104Z" fill="black" stroke="black" stroke-width="0.1"/>
<path d="M7.01022 18.8522C7.73927 19.2637 8.56967 19.4813 9.41147 19.4813C12.1093 19.4813 14.3042 17.2864 14.3042 14.5886C14.3042 11.8907 12.1093 9.69584 9.41147 9.69584C6.71365 9.69584 4.51875 11.8908 4.51875 14.5886C4.51875 15.8395 4.9908 17.0299 5.848 17.9408L7.01022 18.8522ZM7.01022 18.8522C6.96653 18.8275 6.91831 18.8154 6.87047 18.8154C6.80048 18.8154 6.73103 18.8413 6.67714 18.8912C6.26639 19.2718 5.73187 19.4813 5.17188 19.4813C5.11165 19.4813 5.05178 19.4789 4.99232 19.4741C5.40373 19.1578 5.72381 18.7292 5.90746 18.2347L7.01022 18.8522ZM4.12764 19.3202L4.12763 19.3202C4.0203 19.3636 3.95 19.4679 3.95 19.5837C3.95 19.6996 4.0203 19.8039 4.12767 19.8473L4.12767 19.8473C4.45986 19.9818 4.81127 20.05 5.17188 20.05C5.80655 20.05 6.41534 19.8358 6.90741 19.4429C7.67785 19.8407 8.53928 20.05 9.41147 20.05C12.423 20.05 14.8729 17.6 14.8729 14.5886C14.8729 11.5771 12.423 9.12712 9.41147 9.12712C6.39998 9.12712 3.95 11.5771 3.95 14.5886C3.95 15.9229 4.4313 17.1959 5.30905 18.1935C5.07383 18.7028 4.65081 19.1083 4.12764 19.3202Z" fill="black" stroke="black" stroke-width="0.1"/>
</svg>
