<svg width="22" height="25" viewBox="0 0 22 25" fill="none" xmlns="http://www.w3.org/2000/svg">
<rect width="21.9663" height="24.2383" rx="6" fill="#F5F5F5"/>
<path d="M10.9831 11.8756C10.3032 11.8757 9.63846 11.6742 9.07305 11.2965C8.50764 10.9188 8.06694 10.3819 7.80667 9.75373C7.54639 9.12556 7.47825 8.43432 7.61084 7.76742C7.74344 7.10052 8.07082 6.48791 8.55159 6.00708C9.03236 5.52625 9.64492 5.19878 10.3118 5.06609C10.9787 4.93341 11.6699 5.00146 12.2981 5.26164C12.9263 5.52183 13.4633 5.96246 13.8411 6.52782C14.2188 7.09317 14.4205 7.75786 14.4205 8.43781C14.4196 9.34923 14.0572 10.2231 13.4128 10.8676C12.7683 11.5121 11.8945 11.8746 10.9831 11.8756ZM10.9831 5.99141C10.4991 5.99131 10.026 6.13476 9.62354 6.40359C9.22108 6.67242 8.90738 7.05456 8.72213 7.50169C8.53687 7.94881 8.48838 8.44084 8.58277 8.91553C8.67717 9.39022 8.91022 9.82625 9.25245 10.1685C9.59468 10.5107 10.0307 10.7438 10.5054 10.8382C10.9801 10.9326 11.4721 10.8841 11.9193 10.6988C12.3664 10.5136 12.7485 10.1999 13.0174 9.7974C13.2862 9.39494 13.4296 8.9218 13.4295 8.43781C13.4288 7.78922 13.1708 7.16739 12.7122 6.70877C12.2535 6.25014 11.6317 5.99215 10.9831 5.99141ZM16.4708 19.2383H5.49547L5 18.7428C5 17.9571 5.15476 17.1791 5.45544 16.4532C5.75612 15.7273 6.19683 15.0677 6.75242 14.5121C7.308 13.9565 7.96758 13.5158 8.69348 13.2151C9.41939 12.9144 10.1974 12.7597 10.9831 12.7597C11.7688 12.7597 12.5469 12.9144 13.2728 13.2151C13.9987 13.5158 14.6582 13.9565 15.2138 14.5121C15.7694 15.0677 16.2101 15.7273 16.5108 16.4532C16.8115 17.1791 16.9663 17.9571 16.9663 18.7428L16.4708 19.2383ZM6.01437 18.2473H15.9519C15.8307 17.0136 15.2549 15.8691 14.3365 15.0365C13.4181 14.2039 12.2228 13.7427 10.9831 13.7427C9.74347 13.7427 8.54816 14.2039 7.62975 15.0365C6.71135 15.8691 6.13554 17.0136 6.01437 18.2473Z" fill="#231F20"/>
</svg>
