<svg width="25" height="25" viewBox="0 0 25 25" fill="none" xmlns="http://www.w3.org/2000/svg">
<g id="linkedin 1">
<g id="_x31_0.Linkedin">
<path id="Vector" d="M22.5 22.5V15.175C22.5 11.575 21.725 8.82495 17.525 8.82495C15.5 8.82495 14.15 9.92495 13.6 10.975H13.55V9.14995H9.57495V22.5H13.725V15.875C13.725 14.125 14.05 12.45 16.2 12.45C18.325 12.45 18.35 14.425 18.35 15.975V22.475H22.5V22.5Z" fill="#888888"/>
<path id="Vector_2" d="M2.82495 9.15002H6.97495V22.5H2.82495V9.15002Z" fill="#888888"/>
<path id="Vector_3" d="M4.9 2.5C3.575 2.5 2.5 3.575 2.5 4.9C2.5 6.225 3.575 7.325 4.9 7.325C6.225 7.325 7.3 6.225 7.3 4.9C7.3 3.575 6.225 2.5 4.9 2.5Z" fill="#888888"/>
</g>
</g>
</svg>
