<svg width="32" height="32" viewBox="0 0 32 32" fill="none" xmlns="http://www.w3.org/2000/svg">
<path d="M15.9996 0C7.16361 0 0 7.16361 0 15.9996C0 24.8358 7.16334 31.9997 15.9996 31.9997C24.8361 31.9997 32 24.8358 32 15.9996C31.9997 7.16361 24.8361 0 15.9996 0ZM9.3605 7.21618C10.4488 7.21618 11.3316 8.02123 11.3316 9.01441C11.3316 10.0076 10.4488 10.8126 9.3605 10.8126C8.2716 10.8126 7.38936 10.0076 7.38936 9.01441C7.38936 8.02123 8.2716 7.21618 9.3605 7.21618ZM11.3466 22.5966H7.45188V12.4338H11.3466V22.5966ZM24.581 22.5966H20.6675V17.0083C20.6675 16.3703 20.5491 15.9188 20.3131 15.6538C20.0769 15.3893 19.7452 15.2565 19.3183 15.2565C18.8461 15.2565 18.4629 15.4352 18.1696 15.7926C17.8761 16.1501 17.7298 16.7911 17.7298 17.7162V22.5966H13.8348V12.4338H17.4614V14.089C18.0034 13.4132 18.5522 12.9299 19.1072 12.6394C19.6622 12.3492 20.338 12.2042 21.1356 12.2042C22.214 12.2042 23.0575 12.5246 23.667 13.1658C24.2759 13.8068 24.5808 14.7973 24.5808 16.1371L24.581 22.5966Z" fill="#A7A7A7"/>
</svg>
