<svg width="49" height="49" viewBox="0 0 49 49" fill="none" xmlns="http://www.w3.org/2000/svg">
<path d="M18.3528 24.5L22.3528 28.5L30.3528 20.5M16.0223 9.89409C17.4573 9.77957 18.8197 9.21526 19.9154 8.2815C22.4724 6.10246 26.2332 6.10246 28.7901 8.2815C29.8859 9.21526 31.2482 9.77957 32.6833 9.89409C36.0322 10.1613 38.6914 12.8206 38.9587 16.1695C39.0732 17.6045 39.6375 18.9669 40.5713 20.0626C42.7503 22.6196 42.7503 26.3804 40.5713 28.9374C39.6375 30.0331 39.0732 31.3955 38.9587 32.8305C38.6914 36.1794 36.0322 38.8387 32.6833 39.1059C31.2482 39.2204 29.8859 39.7847 28.7901 40.7185C26.2332 42.8975 22.4724 42.8975 19.9154 40.7185C18.8197 39.7847 17.4573 39.2204 16.0223 39.1059C12.6734 38.8387 10.0141 36.1794 9.74688 32.8305C9.63236 31.3955 9.06805 30.0331 8.13428 28.9374C5.95524 26.3804 5.95524 22.6196 8.13428 20.0626C9.06805 18.9669 9.63236 17.6045 9.74688 16.1695C10.0141 12.8206 12.6734 10.1613 16.0223 9.89409Z" stroke="#EF4D5D" stroke-width="2.5" stroke-linecap="round" stroke-linejoin="round"/>
</svg>
