<svg width="64" height="64" viewBox="0 0 64 64" fill="none" xmlns="http://www.w3.org/2000/svg">
<rect width="64" height="64" fill="#F5F5F5"/>
<g id="Payment">
<rect width="1440" height="1066" transform="translate(-688 -190)" fill="white"/>
<g id="Group 120">
<g id="Group 118">
<path id="Vector" d="M32 64C23.4525 64 15.4166 60.6714 9.37263 54.6275C3.3285 48.5834 0 40.5475 0 32C0 23.4525 3.3285 15.4166 9.37263 9.3725C15.4166 3.32863 23.4525 0 32 0C40.5475 0 48.5834 3.32863 54.6274 9.3725C60.6715 15.4166 64 23.4525 64 32C64 40.5475 60.6715 48.5834 54.6274 54.6275C48.5834 60.6714 40.5475 64 32 64ZM32 2.75C15.8715 2.75 2.75 15.8715 2.75 32C2.75 48.1285 15.8715 61.25 32 61.25C48.1285 61.25 61.25 48.1285 61.25 32C61.25 15.8715 48.1285 2.75 32 2.75Z" fill="#217BFE"/>
<path id="Vector_2" d="M28.3084 41.3992C27.9581 41.3992 27.6079 41.2664 27.3398 41.0002L17.4064 31.1409C16.8674 30.6059 16.8641 29.7352 17.3991 29.1962C17.934 28.6574 18.8045 28.654 19.3436 29.1889L28.3048 38.0832L45.2723 21.1157C45.8093 20.5789 46.6799 20.5789 47.2169 21.1157C47.7538 21.6527 47.7538 22.5234 47.2169 23.0604L29.2808 40.9966C29.0123 41.265 28.6604 41.3992 28.3084 41.3992Z" fill="#217BFE"/>
</g>
</g>
</g>
</svg>
