<svg width="64" height="64" viewBox="0 0 64 64" fill="none" xmlns="http://www.w3.org/2000/svg">
<g id="Group 120">
<g id="Group 124">
<g id="Group">
<g id="Group_2">
<path id="Vector" d="M9.5494 9.5494L9.37263 9.37263L9.5494 9.5494C15.5465 3.55216 23.5189 0.25 32 0.25C40.4811 0.25 48.4535 3.55216 54.4506 9.54928C60.4477 15.5465 63.75 23.5188 63.75 32C63.75 40.4812 60.4477 48.4535 54.4506 54.4507C48.4535 60.4478 40.4811 63.75 31.9999 63.75C23.5187 63.75 15.5464 60.4477 9.54928 54.4508C3.55216 48.4537 0.25 40.4813 0.25 32.0001C0.25 23.5188 3.55229 15.5465 9.5494 9.5494ZM11.8475 11.8475L12.0243 12.0243L11.8475 11.8475C6.46497 17.2301 3.5 24.3879 3.5 32.0001C3.5 39.6123 6.46471 46.77 11.8473 52.1527C17.2299 57.5352 24.3877 60.5 31.9999 60.5C39.6121 60.5 46.7699 57.5352 52.1525 52.1527C63.2647 41.0403 63.2647 22.9597 52.1527 11.8474L51.9759 12.0241L52.1526 11.8473C46.7699 6.46484 39.6122 3.5 32 3.5C24.3878 3.5 17.2301 6.46484 11.8475 11.8475Z" fill="#EF4D5D" stroke="white" stroke-width="0.5"/>
</g>
</g>
<g id="Group_3">
<g id="Group_4">
<path id="Vector_2" d="M34.4745 31.8233L34.2978 32.0001L34.4745 32.1769L45.9297 43.632C46.5643 44.2666 46.5643 45.2955 45.9297 45.9301L45.9296 45.9301C45.6124 46.2474 45.197 46.406 44.7807 46.406C44.3644 46.406 43.9489 46.2474 43.6316 45.9301L32.1765 34.475L31.9997 34.2982L31.8229 34.475L20.3678 45.9301C20.0504 46.2474 19.635 46.406 19.2187 46.406C18.8025 46.406 18.3871 46.2474 18.0697 45.9301C17.4351 45.2955 17.4351 44.2666 18.0697 43.632L29.5248 32.1769L29.7016 32.0001L29.5248 31.8233L18.0697 20.3682C17.4351 19.7336 17.4351 18.7048 18.0697 18.0701C18.7043 17.4355 19.7333 17.4355 20.3678 18.0701L20.3678 18.0701L31.8229 29.5253L31.9997 29.702L32.1765 29.5253L43.6315 18.0703C44.2661 17.4356 45.295 17.4357 45.9295 18.0703L45.9296 18.0703C46.5641 18.7048 46.5642 19.7336 45.9296 20.3682L34.4745 31.8233Z" fill="#EF4D5D" stroke="white" stroke-width="0.5"/>
</g>
</g>
</g>
</g>
</svg>
