<svg width="12" height="16" viewBox="0 0 12 16" fill="none" xmlns="http://www.w3.org/2000/svg">
<path id="Vector" d="M10.5664 12.4244L10.2327 11.8672C9.63258 10.8777 8.80436 9.7421 7.718 9.7421C7.51674 9.7421 7.31742 9.78259 7.12013 9.86457L6.53705 10.1146C6.48379 10.1367 6.43205 10.1618 6.37727 10.1884C6.22804 10.261 6.05882 10.3432 5.88476 10.3432C5.45538 10.3432 4.95789 9.78446 4.48413 8.76991C4.01918 7.77413 4.04884 7.2521 4.15557 6.98942C4.27334 6.69961 4.5472 6.5757 4.84141 6.46436C4.88233 6.44884 4.91928 6.43477 4.95522 6.41997L5.54566 6.17137C7.0839 5.5281 6.51164 3.28013 6.32402 2.54312L6.1649 1.90945C6.02887 1.3872 5.66819 0 4.47186 0C4.25039 0 4.01413 0.0515971 3.76985 0.15342C3.60958 0.217069 1.40397 1.11738 0.604897 2.69907C-0.350118 4.58175 -0.173533 7.1064 1.12924 10.2013C2.42227 13.3001 4.09899 15.1954 6.11287 15.8347C6.45831 15.9444 6.84872 16 7.27333 16H7.27355C8.66335 16 10.0353 15.4087 10.1466 15.3596C10.6258 15.1566 10.9355 14.8481 11.0671 14.4426C11.2903 13.755 10.9159 13.0016 10.5664 12.4244ZM10.0374 14.1085C10.0068 14.2028 9.90045 14.2888 9.72149 14.3641C9.71853 14.3654 9.71492 14.3669 9.71189 14.3683C9.69948 14.3738 8.45768 14.9177 7.27326 14.9176C6.95993 14.9176 6.67971 14.8791 6.44042 14.803C4.74378 14.2645 3.293 12.576 2.12748 9.78295C0.953303 6.99332 0.765678 4.77471 1.57059 3.18798C2.1956 1.95087 4.15232 1.16609 4.17152 1.15859C4.17541 1.157 4.17924 1.15549 4.18306 1.1539C4.29448 1.10714 4.39436 1.08246 4.47186 1.08246C4.71036 1.08246 4.92743 1.45237 5.11607 2.1774L5.27447 2.8084C5.61624 4.15064 5.56421 4.99019 5.12668 5.1732L4.53905 5.42072C4.51567 5.43039 4.48832 5.44057 4.45815 5.45204C4.13356 5.57494 3.45811 5.83054 3.15264 6.58191C2.87546 7.26371 2.9902 8.12924 3.50306 9.22801C4.19382 10.7069 4.97282 11.4258 5.88461 11.4258C6.30778 11.4258 6.64746 11.2606 6.85038 11.1621C6.88776 11.1439 6.92117 11.1272 6.95711 11.1124L7.54106 10.8619C7.60132 10.8368 7.65919 10.8246 7.71793 10.8246C7.99901 10.8246 8.503 11.103 9.30561 12.426L9.63908 12.9828C10.05 13.6614 10.0825 13.9695 10.0374 14.1085Z" fill="black"/>
</svg>
