<svg width="14" height="16" viewBox="0 0 14 16" fill="none" xmlns="http://www.w3.org/2000/svg">
<path d="M6.57351 7.70728C7.63235 7.70728 8.5491 7.32752 9.29837 6.57825C10.0474 5.8291 10.4273 4.91248 10.4273 3.85352C10.4273 2.79492 10.0475 1.87817 9.29825 1.12878C8.54898 0.379761 7.63223 0 6.57351 0C5.51455 0 4.59792 0.379761 3.84877 1.12891C3.09963 1.87805 2.71974 2.7948 2.71974 3.85352C2.71974 4.91248 3.09963 5.82922 3.84877 6.57837C4.59816 7.32739 5.51491 7.70728 6.57351 7.70728ZM4.51186 1.79187C5.08669 1.21704 5.76101 0.937622 6.57351 0.937622C7.38589 0.937622 8.06033 1.21704 8.63528 1.79187C9.21011 2.36682 9.48965 3.04126 9.48965 3.85352C9.48965 4.66602 9.21011 5.34033 8.63528 5.91528C8.06033 6.49024 7.38589 6.76965 6.57351 6.76965C5.76125 6.76965 5.08693 6.49011 4.51186 5.91528C3.93691 5.34045 3.65737 4.66602 3.65737 3.85352C3.65737 3.04126 3.93691 2.36682 4.51186 1.79187Z" fill="white"/>
<path d="M13.3166 12.3032C13.2949 11.9915 13.2512 11.6514 13.1869 11.2922C13.122 10.9304 13.0384 10.5884 12.9383 10.2758C12.8347 9.95264 12.6942 9.63354 12.5203 9.32776C12.34 9.01038 12.1281 8.73401 11.8903 8.50659C11.6416 8.26868 11.3372 8.07739 10.9851 7.93787C10.6343 7.79907 10.2455 7.72876 9.82961 7.72876C9.66628 7.72876 9.50832 7.79578 9.20326 7.99438C9.01552 8.11682 8.79592 8.25842 8.5508 8.41504C8.3412 8.54858 8.05727 8.67371 7.70656 8.78699C7.36439 8.89771 7.01698 8.95386 6.67396 8.95386C6.33119 8.95386 5.98378 8.89771 5.64137 8.78699C5.29103 8.67383 5.00697 8.54871 4.79774 8.41516C4.55494 8.26001 4.33521 8.11841 4.14466 7.99426C3.83985 7.79565 3.68189 7.72864 3.51856 7.72864C3.10255 7.72864 2.71387 7.79907 2.36316 7.93799C2.01136 8.07727 1.70679 8.26855 1.45789 8.50671C1.2201 8.73425 1.00818 9.0105 0.828004 9.32776C0.654298 9.63354 0.513673 9.95251 0.410157 10.2759C0.310181 10.5885 0.226563 10.9304 0.161621 11.2922C0.0971682 11.6509 0.053589 11.9911 0.0319825 12.3036C0.0107422 12.6091 0 12.9271 0 13.2484C0 14.0836 0.265503 14.7598 0.789064 15.2584C1.30615 15.7505 1.99024 16 2.82239 16H10.5265C11.3584 16 12.0425 15.7505 12.5597 15.2584C13.0834 14.7601 13.3489 14.0837 13.3489 13.2483C13.3488 12.9259 13.3379 12.6079 13.3166 12.3032ZM11.9132 14.5791C11.5716 14.9043 11.1179 15.0624 10.5264 15.0624H2.82239C2.23072 15.0624 1.7771 14.9043 1.43555 14.5792C1.10047 14.2603 0.937624 13.8248 0.937624 13.2484C0.937624 12.9486 0.947512 12.6526 0.967287 12.3684C0.986574 12.0896 1.026 11.7833 1.08447 11.4579C1.14221 11.1365 1.2157 10.8348 1.3031 10.5618C1.38697 10.2999 1.50135 10.0406 1.64319 9.79089C1.77857 9.55286 1.93433 9.34863 2.10621 9.18408C2.26697 9.03015 2.46961 8.90417 2.70838 8.80969C2.9292 8.72229 3.17737 8.67444 3.44678 8.66724C3.47962 8.68469 3.53809 8.71802 3.63282 8.77979C3.82557 8.9054 4.04774 9.04871 4.29334 9.20557C4.5702 9.38208 4.92689 9.5415 5.35304 9.67908C5.78871 9.81995 6.23304 9.89148 6.67409 9.89148C7.11513 9.89148 7.55958 9.81995 7.99501 9.6792C8.42153 9.54138 8.77809 9.38208 9.05532 9.20532C9.30666 9.04468 9.5226 8.90552 9.71535 8.77979C9.81008 8.71814 9.86855 8.68469 9.90139 8.66724C10.1709 8.67444 10.4191 8.72229 10.64 8.80969C10.8787 8.90417 11.0813 9.03027 11.2421 9.18408C11.414 9.34851 11.5697 9.55273 11.7051 9.79102C11.8471 10.0406 11.9616 10.3 12.0453 10.5616C12.1328 10.8351 12.2064 11.1366 12.2641 11.4578C12.3224 11.7838 12.362 12.0902 12.3812 12.3685V12.3688C12.4011 12.6519 12.4112 12.9478 12.4113 13.2484C12.4112 13.825 12.2483 14.2603 11.9132 14.5791Z" fill="white"/>
</svg>
