<svg width="21" height="24" viewBox="0 0 21 24" fill="none" xmlns="http://www.w3.org/2000/svg">
<path d="M9.86024 11.5609C11.4485 11.5609 12.8236 10.9913 13.9475 9.86737C15.0711 8.74365 15.6409 7.36871 15.6409 5.78027C15.6409 4.19238 15.0712 2.81726 13.9473 1.69318C12.8234 0.569641 11.4483 0 9.86024 0C8.2718 0 6.89686 0.569641 5.77314 1.69336C4.64942 2.81708 4.07959 4.1922 4.07959 5.78027C4.07959 7.36871 4.64942 8.74384 5.77314 9.86755C6.89722 10.9911 8.27235 11.5609 9.86024 11.5609ZM6.76777 2.68781C7.63001 1.82556 8.64149 1.40643 9.86024 1.40643C11.0788 1.40643 12.0905 1.82556 12.9529 2.68781C13.8151 3.55023 14.2345 4.56189 14.2345 5.78027C14.2345 6.99902 13.8151 8.0105 12.9529 8.87293C12.0905 9.73535 11.0788 10.1545 9.86024 10.1545C8.64185 10.1545 7.63038 9.73517 6.76777 8.87293C5.90534 8.01068 5.48603 6.99902 5.48603 5.78027C5.48603 4.56189 5.90534 3.55023 6.76777 2.68781Z" fill="black"/>
<path d="M19.9748 18.4548C19.9424 17.9872 19.8769 17.4771 19.7804 16.9384C19.683 16.3956 19.5575 15.8826 19.4074 15.4136C19.2521 14.929 19.0414 14.4503 18.7804 13.9916C18.51 13.5156 18.1921 13.101 17.8354 12.7599C17.4624 12.403 17.0058 12.1161 16.4777 11.9068C15.9514 11.6986 15.3683 11.5931 14.7444 11.5931C14.4994 11.5931 14.2625 11.6937 13.8049 11.9916C13.5233 12.1752 13.1939 12.3876 12.8262 12.6226C12.5118 12.8229 12.0859 13.0106 11.5598 13.1805C11.0466 13.3466 10.5255 13.4308 10.0109 13.4308C9.49678 13.4308 8.97567 13.3466 8.46205 13.1805C7.93654 13.0107 7.51045 12.8231 7.19661 12.6227C6.83241 12.39 6.50282 12.1776 6.21699 11.9914C5.75978 11.6935 5.52284 11.593 5.27784 11.593C4.65382 11.593 4.07081 11.6986 3.54475 11.907C3.01703 12.1159 2.56019 12.4028 2.18683 12.7601C1.83014 13.1014 1.51227 13.5157 1.24201 13.9916C0.981447 14.4503 0.770509 14.9288 0.615236 15.4138C0.465272 15.8828 0.339844 16.3956 0.242432 16.9384C0.145752 17.4763 0.0803835 17.9866 0.0479738 18.4554C0.0161133 18.9137 0 19.3907 0 19.8726C0 21.1254 0.398255 22.1396 1.1836 22.8876C1.95923 23.6257 2.98536 24 4.23359 24H15.7898C17.0376 24 18.0638 23.6257 18.8396 22.8876C19.6251 22.1402 20.0234 21.1256 20.0234 19.8724C20.0232 19.3889 20.0069 18.9119 19.9748 18.4548ZM17.8698 21.8687C17.3573 22.3564 16.6769 22.5936 15.7896 22.5936H4.23359C3.34608 22.5936 2.66565 22.3564 2.15332 21.8688C1.6507 21.3904 1.40644 20.7372 1.40644 19.8726C1.40644 19.4229 1.42127 18.9789 1.45093 18.5526C1.47986 18.1344 1.539 17.675 1.62671 17.1868C1.71332 16.7047 1.82355 16.2523 1.95465 15.8427C2.08045 15.4499 2.25202 15.061 2.46479 14.6863C2.66785 14.3293 2.90149 14.0229 3.15931 13.7761C3.40046 13.5452 3.70441 13.3563 4.06257 13.2145C4.39381 13.0834 4.76606 13.0117 5.17018 13.0009C5.21943 13.027 5.30714 13.077 5.44923 13.1697C5.73835 13.3581 6.07161 13.5731 6.44002 13.8083C6.8553 14.0731 7.39033 14.3123 8.02956 14.5186C8.68306 14.7299 9.34957 14.8372 10.0111 14.8372C10.6727 14.8372 11.3394 14.7299 11.9925 14.5188C12.6323 14.3121 13.1671 14.0731 13.583 13.808C13.96 13.567 14.2839 13.3583 14.573 13.1697C14.7151 13.0772 14.8028 13.027 14.8521 13.0009C15.2564 13.0117 15.6286 13.0834 15.9601 13.2145C16.318 13.3563 16.622 13.5454 16.8631 13.7761C17.1209 14.0228 17.3546 14.3291 17.5577 14.6865C17.7706 15.061 17.9424 15.4501 18.068 15.8425C18.1993 16.2526 18.3097 16.7049 18.3961 17.1866C18.4836 17.6757 18.5429 18.1353 18.5719 18.5528V18.5532C18.6017 18.9778 18.6167 19.4216 18.6169 19.8726C18.6167 20.7374 18.3725 21.3904 17.8698 21.8687Z" fill="black"/>
</svg>
