<svg width="69" height="39" viewBox="0 0 69 39" fill="none" xmlns="http://www.w3.org/2000/svg">
<rect x="0.5" y="0.5" width="68" height="38" rx="5.5" fill="white" stroke="#DADADA"/>
<path d="M30.66 18H29.26L26.09 13.21V18H24.69V11.01H26.09L29.26 15.81V11.01H30.66V18ZM37.1935 15.11C37.1935 15.31 37.1802 15.49 37.1535 15.65H33.1035C33.1368 16.05 33.2768 16.3633 33.5235 16.59C33.7702 16.8167 34.0735 16.93 34.4335 16.93C34.9535 16.93 35.3235 16.7067 35.5435 16.26H37.0535C36.8935 16.7933 36.5868 17.2333 36.1335 17.58C35.6802 17.92 35.1235 18.09 34.4635 18.09C33.9302 18.09 33.4502 17.9733 33.0235 17.74C32.6035 17.5 32.2735 17.1633 32.0335 16.73C31.8002 16.2967 31.6835 15.7967 31.6835 15.23C31.6835 14.6567 31.8002 14.1533 32.0335 13.72C32.2668 13.2867 32.5935 12.9533 33.0135 12.72C33.4335 12.4867 33.9168 12.37 34.4635 12.37C34.9902 12.37 35.4602 12.4833 35.8735 12.71C36.2935 12.9367 36.6168 13.26 36.8435 13.68C37.0768 14.0933 37.1935 14.57 37.1935 15.11ZM35.7435 14.71C35.7368 14.35 35.6068 14.0633 35.3535 13.85C35.1002 13.63 34.7902 13.52 34.4235 13.52C34.0768 13.52 33.7835 13.6267 33.5435 13.84C33.3102 14.0467 33.1668 14.3367 33.1135 14.71H35.7435ZM39.8454 13.61V16.29C39.8454 16.4767 39.8887 16.6133 39.9754 16.7C40.0687 16.78 40.2221 16.82 40.4354 16.82H41.0854V18H40.2054C39.0254 18 38.4354 17.4267 38.4354 16.28V13.61H37.7754V12.46H38.4354V11.09H39.8454V12.46H41.0854V13.61H39.8454ZM28.65 24.42C29.0433 24.4933 29.3667 24.69 29.62 25.01C29.8733 25.33 30 25.6967 30 26.11C30 26.4833 29.9067 26.8133 29.72 27.1C29.54 27.38 29.2767 27.6 28.93 27.76C28.5833 27.92 28.1733 28 27.7 28H24.69V21.02H27.57C28.0433 21.02 28.45 21.0967 28.79 21.25C29.1367 21.4033 29.3967 21.6167 29.57 21.89C29.75 22.1633 29.84 22.4733 29.84 22.82C29.84 23.2267 29.73 23.5667 29.51 23.84C29.2967 24.1133 29.01 24.3067 28.65 24.42ZM26.09 23.9H27.37C27.7033 23.9 27.96 23.8267 28.14 23.68C28.32 23.5267 28.41 23.31 28.41 23.03C28.41 22.75 28.32 22.5333 28.14 22.38C27.96 22.2267 27.7033 22.15 27.37 22.15H26.09V23.9ZM27.5 26.86C27.84 26.86 28.1033 26.78 28.29 26.62C28.4833 26.46 28.58 26.2333 28.58 25.94C28.58 25.64 28.48 25.4067 28.28 25.24C28.08 25.0667 27.81 24.98 27.47 24.98H26.09V26.86H27.5ZM30.7558 25.21C30.7558 24.65 30.8658 24.1533 31.0858 23.72C31.3124 23.2867 31.6158 22.9533 31.9958 22.72C32.3824 22.4867 32.8124 22.37 33.2858 22.37C33.6991 22.37 34.0591 22.4533 34.3658 22.62C34.6791 22.7867 34.9291 22.9967 35.1158 23.25V22.46H36.5258V28H35.1158V27.19C34.9358 27.45 34.6858 27.6667 34.3658 27.84C34.0524 28.0067 33.6891 28.09 33.2758 28.09C32.8091 28.09 32.3824 27.97 31.9958 27.73C31.6158 27.49 31.3124 27.1533 31.0858 26.72C30.8658 26.28 30.7558 25.7767 30.7558 25.21ZM35.1158 25.23C35.1158 24.89 35.0491 24.6 34.9158 24.36C34.7824 24.1133 34.6024 23.9267 34.3758 23.8C34.1491 23.6667 33.9058 23.6 33.6458 23.6C33.3858 23.6 33.1458 23.6633 32.9258 23.79C32.7058 23.9167 32.5258 24.1033 32.3858 24.35C32.2524 24.59 32.1858 24.8767 32.1858 25.21C32.1858 25.5433 32.2524 25.8367 32.3858 26.09C32.5258 26.3367 32.7058 26.5267 32.9258 26.66C33.1524 26.7933 33.3924 26.86 33.6458 26.86C33.9058 26.86 34.1491 26.7967 34.3758 26.67C34.6024 26.5367 34.7824 26.35 34.9158 26.11C35.0491 25.8633 35.1158 25.57 35.1158 25.23ZM40.9631 22.38C41.6231 22.38 42.1565 22.59 42.5631 23.01C42.9698 23.4233 43.1731 24.0033 43.1731 24.75V28H41.7731V24.94C41.7731 24.5 41.6631 24.1633 41.4431 23.93C41.2231 23.69 40.9231 23.57 40.5431 23.57C40.1565 23.57 39.8498 23.69 39.6231 23.93C39.4031 24.1633 39.2931 24.5 39.2931 24.94V28H37.8931V22.46H39.2931V23.15C39.4798 22.91 39.7165 22.7233 40.0031 22.59C40.2965 22.45 40.6165 22.38 40.9631 22.38ZM47.7845 28L45.9045 25.64V28H44.5045V20.6H45.9045V24.81L47.7645 22.46H49.5845L47.1445 25.24L49.6045 28H47.7845ZM51.0543 21.8C50.8076 21.8 50.601 21.7233 50.4343 21.57C50.2743 21.41 50.1943 21.2133 50.1943 20.98C50.1943 20.7467 50.2743 20.5533 50.4343 20.4C50.601 20.24 50.8076 20.16 51.0543 20.16C51.301 20.16 51.5043 20.24 51.6643 20.4C51.831 20.5533 51.9143 20.7467 51.9143 20.98C51.9143 21.2133 51.831 21.41 51.6643 21.57C51.5043 21.7233 51.301 21.8 51.0543 21.8ZM51.7443 22.46V28H50.3443V22.46H51.7443ZM56.1975 22.38C56.8575 22.38 57.3908 22.59 57.7975 23.01C58.2042 23.4233 58.4075 24.0033 58.4075 24.75V28H57.0075V24.94C57.0075 24.5 56.8975 24.1633 56.6775 23.93C56.4575 23.69 56.1575 23.57 55.7775 23.57C55.3908 23.57 55.0842 23.69 54.8575 23.93C54.6375 24.1633 54.5275 24.5 54.5275 24.94V28H53.1275V22.46H54.5275V23.15C54.7142 22.91 54.9508 22.7233 55.2375 22.59C55.5308 22.45 55.8508 22.38 56.1975 22.38ZM61.9088 22.37C62.3222 22.37 62.6855 22.4533 62.9988 22.62C63.3122 22.78 63.5588 22.99 63.7388 23.25V22.46H65.1488V28.04C65.1488 28.5533 65.0455 29.01 64.8388 29.41C64.6322 29.8167 64.3222 30.1367 63.9088 30.37C63.4955 30.61 62.9955 30.73 62.4088 30.73C61.6222 30.73 60.9755 30.5467 60.4688 30.18C59.9688 29.8133 59.6855 29.3133 59.6188 28.68H61.0088C61.0822 28.9333 61.2388 29.1333 61.4788 29.28C61.7255 29.4333 62.0222 29.51 62.3688 29.51C62.7755 29.51 63.1055 29.3867 63.3588 29.14C63.6122 28.9 63.7388 28.5333 63.7388 28.04V27.18C63.5588 27.44 63.3088 27.6567 62.9888 27.83C62.6755 28.0033 62.3155 28.09 61.9088 28.09C61.4422 28.09 61.0155 27.97 60.6288 27.73C60.2422 27.49 59.9355 27.1533 59.7088 26.72C59.4888 26.28 59.3788 25.7767 59.3788 25.21C59.3788 24.65 59.4888 24.1533 59.7088 23.72C59.9355 23.2867 60.2388 22.9533 60.6188 22.72C61.0055 22.4867 61.4355 22.37 61.9088 22.37ZM63.7388 25.23C63.7388 24.89 63.6722 24.6 63.5388 24.36C63.4055 24.1133 63.2255 23.9267 62.9988 23.8C62.7722 23.6667 62.5288 23.6 62.2688 23.6C62.0088 23.6 61.7688 23.6633 61.5488 23.79C61.3288 23.9167 61.1488 24.1033 61.0088 24.35C60.8755 24.59 60.8088 24.8767 60.8088 25.21C60.8088 25.5433 60.8755 25.8367 61.0088 26.09C61.1488 26.3367 61.3288 26.5267 61.5488 26.66C61.7755 26.7933 62.0155 26.86 62.2688 26.86C62.5288 26.86 62.7722 26.7967 62.9988 26.67C63.2255 26.5367 63.4055 26.35 63.5388 26.11C63.6722 25.8633 63.7388 25.57 63.7388 25.23Z" fill="black"/>
<path d="M6 12L11.416 25L13.3388 19.3388L19 17.416L6 12Z" stroke="black" stroke-width="2" stroke-linecap="round" stroke-linejoin="round"/>
<path d="M14 20L18 24" stroke="black" stroke-width="2" stroke-linecap="round" stroke-linejoin="round"/>
</svg>
