<svg width="69" height="39" viewBox="0 0 69 39" fill="none" xmlns="http://www.w3.org/2000/svg">
<rect x="0.5" y="0.5" width="68" height="38" rx="5.5" fill="white" stroke="#DADADA"/>
<path d="M27.97 17.42C28.61 16.8867 29.12 16.4433 29.5 16.09C29.88 15.73 30.1967 15.3567 30.45 14.97C30.7033 14.5833 30.83 14.2033 30.83 13.83C30.83 13.49 30.75 13.2233 30.59 13.03C30.43 12.8367 30.1833 12.74 29.85 12.74C29.5167 12.74 29.26 12.8533 29.08 13.08C28.9 13.3 28.8067 13.6033 28.8 13.99H27.44C27.4667 13.19 27.7033 12.5833 28.15 12.17C28.6033 11.7567 29.1767 11.55 29.87 11.55C30.63 11.55 31.2133 11.7533 31.62 12.16C32.0267 12.56 32.23 13.09 32.23 13.75C32.23 14.27 32.09 14.7667 31.81 15.24C31.53 15.7133 31.21 16.1267 30.85 16.48C30.49 16.8267 30.02 17.2467 29.44 17.74H32.39V18.9H27.45V17.86L27.97 17.42ZM38.1722 12.92H34.9322V14.63C35.0722 14.4567 35.2722 14.3167 35.5322 14.21C35.7922 14.0967 36.0689 14.04 36.3622 14.04C36.8955 14.04 37.3322 14.1567 37.6722 14.39C38.0122 14.6233 38.2589 14.9233 38.4122 15.29C38.5655 15.65 38.6422 16.0367 38.6422 16.45C38.6422 17.2167 38.4222 17.8333 37.9822 18.3C37.5489 18.7667 36.9289 19 36.1222 19C35.3622 19 34.7555 18.81 34.3022 18.43C33.8489 18.05 33.5922 17.5533 33.5322 16.94H34.8922C34.9522 17.2067 35.0855 17.42 35.2922 17.58C35.5055 17.74 35.7755 17.82 36.1022 17.82C36.4955 17.82 36.7922 17.6967 36.9922 17.45C37.1922 17.2033 37.2922 16.8767 37.2922 16.47C37.2922 16.0567 37.1889 15.7433 36.9822 15.53C36.7822 15.31 36.4855 15.2 36.0922 15.2C35.8122 15.2 35.5789 15.27 35.3922 15.41C35.2055 15.55 35.0722 15.7367 34.9922 15.97H33.6522V11.69H38.1722V12.92ZM43.4877 13.53C43.4211 13.25 43.3044 13.04 43.1377 12.9C42.9777 12.76 42.7444 12.69 42.4377 12.69C41.9777 12.69 41.6377 12.8767 41.4177 13.25C41.2044 13.6167 41.0944 14.2167 41.0877 15.05C41.2477 14.7833 41.4811 14.5767 41.7877 14.43C42.0944 14.2767 42.4277 14.2 42.7877 14.2C43.2211 14.2 43.6044 14.2933 43.9377 14.48C44.2711 14.6667 44.5311 14.94 44.7177 15.3C44.9044 15.6533 44.9977 16.08 44.9977 16.58C44.9977 17.0533 44.9011 17.4767 44.7077 17.85C44.5211 18.2167 44.2444 18.5033 43.8777 18.71C43.5111 18.9167 43.0744 19.02 42.5677 19.02C41.8744 19.02 41.3277 18.8667 40.9277 18.56C40.5344 18.2533 40.2577 17.8267 40.0977 17.28C39.9444 16.7267 39.8677 16.0467 39.8677 15.24C39.8677 14.02 40.0777 13.1 40.4977 12.48C40.9177 11.8533 41.5811 11.54 42.4877 11.54C43.1877 11.54 43.7311 11.73 44.1177 12.11C44.5044 12.49 44.7277 12.9633 44.7877 13.53H43.4877ZM42.4677 15.35C42.1144 15.35 41.8177 15.4533 41.5777 15.66C41.3377 15.8667 41.2177 16.1667 41.2177 16.56C41.2177 16.9533 41.3277 17.2633 41.5477 17.49C41.7744 17.7167 42.0911 17.83 42.4977 17.83C42.8577 17.83 43.1411 17.72 43.3477 17.5C43.5611 17.28 43.6677 16.9833 43.6677 16.61C43.6677 16.2233 43.5644 15.9167 43.3577 15.69C43.1577 15.4633 42.8611 15.35 42.4677 15.35ZM52.607 15.42C53.0004 15.4933 53.3237 15.69 53.577 16.01C53.8304 16.33 53.957 16.6967 53.957 17.11C53.957 17.4833 53.8637 17.8133 53.677 18.1C53.497 18.38 53.2337 18.6 52.887 18.76C52.5404 18.92 52.1304 19 51.657 19H48.647V12.02H51.527C52.0004 12.02 52.407 12.0967 52.747 12.25C53.0937 12.4033 53.3537 12.6167 53.527 12.89C53.707 13.1633 53.797 13.4733 53.797 13.82C53.797 14.2267 53.687 14.5667 53.467 14.84C53.2537 15.1133 52.967 15.3067 52.607 15.42ZM50.047 14.9H51.327C51.6604 14.9 51.917 14.8267 52.097 14.68C52.277 14.5267 52.367 14.31 52.367 14.03C52.367 13.75 52.277 13.5333 52.097 13.38C51.917 13.2267 51.6604 13.15 51.327 13.15H50.047V14.9ZM51.457 17.86C51.797 17.86 52.0604 17.78 52.247 17.62C52.4404 17.46 52.537 17.2333 52.537 16.94C52.537 16.64 52.437 16.4067 52.237 16.24C52.037 16.0667 51.767 15.98 51.427 15.98H50.047V17.86H51.457ZM55.7828 12.8C55.5361 12.8 55.3295 12.7233 55.1628 12.57C55.0028 12.41 54.9228 12.2133 54.9228 11.98C54.9228 11.7467 55.0028 11.5533 55.1628 11.4C55.3295 11.24 55.5361 11.16 55.7828 11.16C56.0295 11.16 56.2328 11.24 56.3928 11.4C56.5595 11.5533 56.6428 11.7467 56.6428 11.98C56.6428 12.2133 56.5595 12.41 56.3928 12.57C56.2328 12.7233 56.0295 12.8 55.7828 12.8ZM56.4728 13.46V19H55.0728V13.46H56.4728ZM59.486 14.61V17.29C59.486 17.4767 59.5293 17.6133 59.616 17.7C59.7093 17.78 59.8627 17.82 60.076 17.82H60.726V19H59.846C58.666 19 58.076 18.4267 58.076 17.28V14.61H57.416V13.46H58.076V12.09H59.486V13.46H60.726V14.61H59.486ZM30.1 29.07C29.6133 29.07 29.1733 28.9867 28.78 28.82C28.3933 28.6533 28.0867 28.4133 27.86 28.1C27.6333 27.7867 27.5167 27.4167 27.51 26.99H29.01C29.03 27.2767 29.13 27.5033 29.31 27.67C29.4967 27.8367 29.75 27.92 30.07 27.92C30.3967 27.92 30.6533 27.8433 30.84 27.69C31.0267 27.53 31.12 27.3233 31.12 27.07C31.12 26.8633 31.0567 26.6933 30.93 26.56C30.8033 26.4267 30.6433 26.3233 30.45 26.25C30.2633 26.17 30.0033 26.0833 29.67 25.99C29.2167 25.8567 28.8467 25.7267 28.56 25.6C28.28 25.4667 28.0367 25.27 27.83 25.01C27.63 24.7433 27.53 24.39 27.53 23.95C27.53 23.5367 27.6333 23.1767 27.84 22.87C28.0467 22.5633 28.3367 22.33 28.71 22.17C29.0833 22.0033 29.51 21.92 29.99 21.92C30.71 21.92 31.2933 22.0967 31.74 22.45C32.1933 22.7967 32.4433 23.2833 32.49 23.91H30.95C30.9367 23.67 30.8333 23.4733 30.64 23.32C30.4533 23.16 30.2033 23.08 29.89 23.08C29.6167 23.08 29.3967 23.15 29.23 23.29C29.07 23.43 28.99 23.6333 28.99 23.9C28.99 24.0867 29.05 24.2433 29.17 24.37C29.2967 24.49 29.45 24.59 29.63 24.67C29.8167 24.7433 30.0767 24.83 30.41 24.93C30.8633 25.0633 31.2333 25.1967 31.52 25.33C31.8067 25.4633 32.0533 25.6633 32.26 25.93C32.4667 26.1967 32.57 26.5467 32.57 26.98C32.57 27.3533 32.4733 27.7 32.28 28.02C32.0867 28.34 31.8033 28.5967 31.43 28.79C31.0567 28.9767 30.6133 29.07 30.1 29.07ZM36.1938 29.07C35.7071 29.07 35.2671 28.9867 34.8738 28.82C34.4871 28.6533 34.1804 28.4133 33.9538 28.1C33.7271 27.7867 33.6104 27.4167 33.6038 26.99H35.1038C35.1238 27.2767 35.2238 27.5033 35.4038 27.67C35.5904 27.8367 35.8438 27.92 36.1638 27.92C36.4904 27.92 36.7471 27.8433 36.9338 27.69C37.1204 27.53 37.2138 27.3233 37.2138 27.07C37.2138 26.8633 37.1504 26.6933 37.0238 26.56C36.8971 26.4267 36.7371 26.3233 36.5438 26.25C36.3571 26.17 36.0971 26.0833 35.7638 25.99C35.3104 25.8567 34.9404 25.7267 34.6538 25.6C34.3738 25.4667 34.1304 25.27 33.9238 25.01C33.7238 24.7433 33.6238 24.39 33.6238 23.95C33.6238 23.5367 33.7271 23.1767 33.9338 22.87C34.1404 22.5633 34.4304 22.33 34.8038 22.17C35.1771 22.0033 35.6038 21.92 36.0838 21.92C36.8038 21.92 37.3871 22.0967 37.8338 22.45C38.2871 22.7967 38.5371 23.2833 38.5838 23.91H37.0438C37.0304 23.67 36.9271 23.4733 36.7338 23.32C36.5471 23.16 36.2971 23.08 35.9838 23.08C35.7104 23.08 35.4904 23.15 35.3238 23.29C35.1638 23.43 35.0838 23.6333 35.0838 23.9C35.0838 24.0867 35.1438 24.2433 35.2638 24.37C35.3904 24.49 35.5438 24.59 35.7238 24.67C35.9104 24.7433 36.1704 24.83 36.5038 24.93C36.9571 25.0633 37.3271 25.1967 37.6138 25.33C37.9004 25.4633 38.1471 25.6633 38.3538 25.93C38.5604 26.1967 38.6638 26.5467 38.6638 26.98C38.6638 27.3533 38.5671 27.7 38.3737 28.02C38.1804 28.34 37.8971 28.5967 37.5238 28.79C37.1504 28.9767 36.7071 29.07 36.1938 29.07ZM41.2775 27.89H43.5775V29H39.8775V22.02H41.2775V27.89Z" fill="black"/>
<path d="M18.4444 19H7.55556C6.69645 19 6 19.7326 6 20.6364V26.3636C6 27.2674 6.69645 28 7.55556 28H18.4444C19.3036 28 20 27.2674 20 26.3636V20.6364C20 19.7326 19.3036 19 18.4444 19Z" stroke="black" stroke-width="2" stroke-linecap="round" stroke-linejoin="round"/>
<path d="M9 19V15.8889C9 14.8575 9.42143 13.8683 10.1716 13.139C10.9217 12.4097 11.9391 12 13 12C14.0609 12 15.0783 12.4097 15.8284 13.139C16.5786 13.8683 17 14.8575 17 15.8889V19" stroke="black" stroke-width="2" stroke-linecap="round" stroke-linejoin="round"/>
</svg>
