<svg width="24" height="25" viewBox="0 0 24 25" fill="none" xmlns="http://www.w3.org/2000/svg">
<rect width="24" height="24.2349" rx="6" fill="#F5F5F5"/>
<path d="M12 19.2349C11.7722 19.2349 11.5526 19.1524 11.3815 19.0025C10.7351 18.4373 10.1119 17.9062 9.56213 17.4376L9.55933 17.4352C7.94739 16.0615 6.55542 14.8753 5.58691 13.7067C4.50427 12.4003 4 11.1616 4 9.80848C4 8.49378 4.45081 7.28089 5.26929 6.39307C6.09753 5.49475 7.23401 5 8.46973 5C9.39331 5 10.2391 5.29199 10.9836 5.8678C11.3594 6.15845 11.7 6.51416 12 6.92908C12.3002 6.51416 12.6406 6.15845 13.0165 5.8678C13.761 5.29199 14.6068 5 15.5304 5C16.766 5 17.9026 5.49475 18.7308 6.39307C19.5493 7.28089 20 8.49378 20 9.80848C20 11.1616 19.4958 12.4003 18.4132 13.7066C17.4447 14.8753 16.0529 16.0614 14.4412 17.435C13.8904 17.9042 13.2662 18.4362 12.6184 19.0027C12.4474 19.1524 12.2277 19.2349 12 19.2349ZM8.46973 5.93726C7.4989 5.93726 6.60706 6.32471 5.95825 7.02832C5.2998 7.74256 4.93713 8.72987 4.93713 9.80848C4.93713 10.9465 5.36011 11.9644 6.30847 13.1087C7.2251 14.2147 8.5885 15.3766 10.1671 16.7219L10.17 16.7244C10.7219 17.1947 11.3475 17.7279 11.9987 18.2973C12.6537 17.7268 13.2803 17.1928 13.8333 16.7217C15.4117 15.3764 16.775 14.2147 17.6917 13.1087C18.6399 11.9644 19.0629 10.9465 19.0629 9.80848C19.0629 8.72987 18.7002 7.74256 18.0417 7.02832C17.3931 6.32471 16.5011 5.93726 15.5304 5.93726C14.8192 5.93726 14.1663 6.16333 13.5897 6.60913C13.0759 7.0066 12.718 7.50904 12.5082 7.8606C12.4003 8.04139 12.2103 8.1493 12 8.1493C11.7897 8.1493 11.5997 8.04139 11.4918 7.8606C11.2821 7.50904 10.9242 7.0066 10.4103 6.60913C9.83374 6.16333 9.18079 5.93726 8.46973 5.93726Z" fill="black"/>
</svg>
