<svg width="48" height="48" viewBox="0 0 48 48" fill="none" xmlns="http://www.w3.org/2000/svg">
<g clip-path="url(#clip0_403_2033)">
<path d="M4 41.6H32.8C33.8605 41.5987 34.8772 41.1769 35.627 40.427C36.3769 39.6771 36.7987 38.6605 36.8 37.6V31.8816L44.24 38.6144C44.6513 38.9905 45.1883 39.1994 45.7456 39.2C46.0655 39.1992 46.3817 39.1311 46.6736 39C47.0689 38.8293 47.4053 38.5463 47.6411 38.186C47.877 37.8258 48.0017 37.4042 48 36.9736V11.0264C48.0022 10.5954 47.8776 10.1733 47.6418 9.81259C47.406 9.45186 47.0693 9.16844 46.6736 8.99759C46.2746 8.81584 45.8309 8.75571 45.3979 8.82471C44.965 8.89372 44.5619 9.08881 44.2392 9.38559L36.8 16.1184V10.4C36.7987 9.33952 36.3769 8.32284 35.627 7.57297C34.8772 6.8231 33.8605 6.40126 32.8 6.39999H4C2.93952 6.40126 1.92285 6.8231 1.17298 7.57297C0.423106 8.32284 0.00127029 9.33952 0 10.4L0 37.6C0.00127029 38.6605 0.423106 39.6771 1.17298 40.427C1.92285 41.1769 2.93952 41.5987 4 41.6ZM45.3128 10.572C45.407 10.4852 45.5249 10.4282 45.6514 10.4083C45.778 10.3884 45.9076 10.4064 46.024 10.46C46.1362 10.5059 46.2319 10.5845 46.299 10.6855C46.366 10.7864 46.4012 10.9052 46.4 11.0264V36.9736C46.4012 37.0948 46.366 37.2136 46.299 37.3145C46.2319 37.4155 46.1362 37.494 46.024 37.54C45.9076 37.5936 45.778 37.6116 45.6514 37.5917C45.5249 37.5718 45.407 37.5148 45.3128 37.428L36.8 29.724V18.276L45.3128 10.572ZM1.6 10.4C1.6 9.76347 1.85286 9.15302 2.30294 8.70294C2.75303 8.25285 3.36348 7.99999 4 7.99999H32.8C33.4365 7.99999 34.047 8.25285 34.4971 8.70294C34.9471 9.15302 35.2 9.76347 35.2 10.4V37.6C35.2 38.2365 34.9471 38.847 34.4971 39.2971C34.047 39.7471 33.4365 40 32.8 40H4C3.36348 40 2.75303 39.7471 2.30294 39.2971C1.85286 38.847 1.6 38.2365 1.6 37.6V10.4Z" fill="black"/>
<path d="M23.544 35.1952C24.2973 35.1986 25.0486 35.1181 25.784 34.9552C26.537 34.7873 27.2252 34.405 27.7656 33.8544L28.8928 32.7344C29.116 32.5115 29.293 32.2468 29.4137 31.9555C29.5345 31.6641 29.5967 31.3518 29.5967 31.0364C29.5967 30.721 29.5345 30.4087 29.4137 30.1174C29.293 29.826 29.116 29.5613 28.8928 29.3384L25.4944 25.9488C25.043 25.5012 24.433 25.25 23.7972 25.25C23.1615 25.25 22.5514 25.5012 22.1 25.9488L21.2376 26.8104C19.8382 26.5501 18.5571 25.8536 17.5776 24.8208C16.5387 23.8458 15.84 22.5632 15.584 21.1616L16.4528 20.2928C16.899 19.8416 17.1492 19.2326 17.1492 18.598C17.1492 17.9634 16.899 17.3544 16.4528 16.9032L13.0616 13.5032C12.6041 13.0661 11.9956 12.8221 11.3628 12.8221C10.73 12.8221 10.1216 13.0661 9.66401 13.5032L8.55121 14.6232C7.99811 15.1649 7.61357 15.855 7.44401 16.6104C6.98561 18.6304 6.56401 23.9704 12.4896 29.9104C16.86 34.2736 20.9064 35.1952 23.544 35.1952ZM9.00561 16.96C9.10973 16.5031 9.34429 16.0862 9.68081 15.76L10.8008 14.6344C10.9508 14.4844 11.1543 14.4002 11.3664 14.4002C11.5785 14.4002 11.782 14.4844 11.932 14.6344L15.324 18.0344C15.3984 18.1087 15.4574 18.1969 15.4977 18.2941C15.5379 18.3912 15.5586 18.4953 15.5586 18.6004C15.5586 18.7055 15.5379 18.8096 15.4977 18.9068C15.4574 19.0039 15.3984 19.0921 15.324 19.1664L14.196 20.2944C14.046 20.4444 13.9617 20.6479 13.9616 20.86C14.1236 22.8099 15.0125 24.6277 16.452 25.9528C17.7771 27.3918 19.5945 28.2804 21.544 28.4424C21.7562 28.4424 21.9596 28.3581 22.1096 28.208L23.2344 27.084C23.3088 27.009 23.3973 26.9495 23.4947 26.9089C23.5922 26.8683 23.6968 26.8474 23.8024 26.8474C23.908 26.8474 24.0126 26.8683 24.1101 26.9089C24.2076 26.9495 24.296 27.009 24.3704 27.084L27.7688 30.4736C27.9188 30.6236 28.003 30.8271 28.003 31.0392C28.003 31.2513 27.9188 31.4548 27.7688 31.6048L26.636 32.7304C26.3096 33.0652 25.8925 33.2974 25.436 33.3984C23.672 33.7984 18.9952 34.1488 13.6216 28.7832C8.24801 23.4176 8.60561 18.7264 9.00561 16.96Z" fill="black"/>
</g>
<defs>
<clipPath id="clip0_403_2033">
<rect width="48" height="48" fill="white"/>
</clipPath>
</defs>
</svg>
