<svg width="25" height="24" viewBox="0 0 25 24" fill="none" xmlns="http://www.w3.org/2000/svg">
<rect width="24.0504" height="24.0025" rx="6" fill="#F5F5F5"/>
<path d="M18.686 17.5445C13.2698 20.328 5.98951 16.115 5.68213 15.9344C5.52295 15.8408 5.45875 15.6499 5.5293 15.4802C5.70044 15.0689 5.89991 14.4525 5.87818 13.8519C5.86036 13.3552 6.59278 11.2566 7.79005 8.37497C7.91754 7.99759 8.3124 7.89818 8.60135 7.68298C8.60133 7.68295 11.2202 5.55942 11.2202 5.55942C11.3196 5.4791 11.4627 5.47958 11.561 5.56064L13.166 6.87851C13.2775 6.96574 13.2944 7.13716 13.199 7.24179C13.1627 7.25884 13.1373 7.29294 13.1173 7.32483L12.1165 8.17587C11.9512 8.31601 11.7019 8.29733 11.5603 8.134C11.4338 7.98764 11.4336 7.77512 11.5601 7.62863L11.7197 7.4437C11.9323 7.19797 11.5564 6.86901 11.3413 7.11705C11.3413 7.11704 11.1816 7.30197 11.1816 7.30197C10.4779 8.14302 11.603 9.24699 12.4402 8.55672C12.4402 8.55673 13.2897 7.83449 13.2897 7.83449L13.4233 8.02963C13.5147 8.16281 13.4888 8.34055 13.3635 8.44309L12.3677 9.25827C12.24 9.36301 12.0723 9.40988 11.9077 9.38706L10.4215 9.17995C10.4412 9.06995 10.4577 9.01845 10.458 9.01743C10.5686 8.70926 10.1102 8.53531 9.98975 8.84214C9.96192 8.91635 9.72437 9.62765 9.94922 11.7057C10.1567 13.6217 8.99195 14.6773 8.94214 14.7214C8.83887 14.8123 8.82862 14.9699 8.9192 15.0737C9.01055 15.1778 9.16863 15.1879 9.27198 15.0971C9.30968 15.0642 9.8957 14.5352 10.2351 13.5685C10.6185 13.502 11.0107 13.6057 11.2551 13.6948C11.1501 13.8858 11.0368 14.2039 11.3218 14.2872C11.4517 14.3224 11.5923 14.2436 11.627 14.109C11.9357 13.2554 12.8739 12.8419 14.0168 12.6534C15.155 12.5041 16.2383 12.7905 16.6509 13.3521C16.7327 13.463 16.8889 13.4875 17.0003 13.4055C17.3282 13.0972 16.7627 12.7552 16.5127 12.5772C17.489 11.5832 18.6471 12.0738 18.698 12.096C18.8245 12.1527 18.9719 12.0958 19.0286 11.9701C19.085 11.8441 19.0286 11.6961 18.9026 11.6397C18.8858 11.6324 17.2857 10.9451 16.0445 12.3534C14.7395 11.8078 12.4159 12.237 11.5502 13.2724C11.3094 13.1728 10.8639 13.0268 10.3802 13.0518C10.4667 12.6424 10.503 12.176 10.4463 11.6519C10.3463 10.7278 10.3433 10.0932 10.3677 9.67716L11.8389 9.88217C12.1386 9.92453 12.4491 9.83811 12.6846 9.64524L13.6804 8.83005C14.0081 8.56174 14.075 8.09616 13.8359 7.74717L13.6482 7.47304C13.8488 7.16336 13.7738 6.72165 13.4834 6.49204C13.4834 6.49204 11.8787 5.17441 11.8787 5.17441C11.5977 4.94321 11.1882 4.94162 10.9053 5.17112L8.28638 7.29453C8.21882 7.34979 8.14315 7.39332 8.06348 7.42758C7.72925 7.57798 7.46827 7.84629 7.32813 8.18308C6.58766 9.96555 5.34986 13.0744 5.37867 13.87C5.39698 14.3802 5.21973 14.9229 5.06788 15.2881C4.90015 15.6908 5.05177 16.1438 5.42872 16.3653C7.32384 17.5629 14.2407 20.5634 18.9146 17.9892C19.2018 17.8346 18.9806 17.3985 18.686 17.5445Z" fill="black" stroke="black" stroke-width="0.3"/>
</svg>
