<svg width="20" height="20" viewBox="0 0 20 20" fill="none" xmlns="http://www.w3.org/2000/svg">
<path d="M20 7.53839C19.8855 -0.514343 9.16471 -2.84536 5.66425 4.27684C0.550474 5.55816 -1.69644 11.771 1.44034 16.0138L0.0647615 19.9735L4.43805 18.4542C8.05343 20.1597 12.6738 18.4699 14.3377 14.8422C14.7554 14.735 15.164 14.5919 15.5616 14.4119L19.9349 15.9312L18.5593 11.9715C19.503 10.6785 20 9.15268 20 7.53839ZM7.53881 17.948C6.47071 17.9522 5.44916 17.6816 4.51083 17.1883L1.96574 18.0725L2.75645 15.7963C-0.132156 12.506 1.09259 7.30933 5.15455 5.67597C3.85835 10.511 7.86593 15.3981 12.8673 15.067C11.7034 16.8444 9.70905 17.948 7.53881 17.948ZM15.4888 13.146C11.2935 15.4292 6.06925 12.3249 6.09351 7.53835C6.09347 4.02746 8.94986 1.17108 12.4608 1.17108C17.9245 1.17882 20.8355 7.6525 17.2431 11.754L18.0339 14.0302L15.4888 13.146Z" fill="#6C757D"/>
<path d="M10.2733 6.32748H9.69541C9.75623 5.60258 10.1704 4.94378 10.8073 4.57792L11.2293 4.33549L10.6455 3.31934L10.2235 3.56176C9.22376 4.13611 8.58379 5.18371 8.52101 6.32748H8.5155V9.84317H10.2733C12.6054 9.74661 12.6045 6.42362 10.2733 6.32748ZM10.2733 8.67128H9.68732V7.49938H10.2733C11.0507 7.53157 11.0504 8.63924 10.2733 8.67128Z" fill="#6C757D"/>
<path d="M14.9218 6.32748H14.344C14.4048 5.60258 14.8189 4.94378 15.4558 4.57792L15.8778 4.33549L15.2941 3.31934L14.8721 3.56176C13.8723 4.13611 13.2323 5.18371 13.1696 6.32748H13.1641V9.84317H14.9219C17.2539 9.74661 17.253 6.42362 14.9218 6.32748ZM14.9218 8.67128H14.3359V7.49938H14.9218C15.6992 7.53157 15.6989 8.63924 14.9218 8.67128Z" fill="#6C757D"/>
</svg>
