<svg width="72" height="72" viewBox="0 0 72 72" fill="none" xmlns="http://www.w3.org/2000/svg">
<g clip-path="url(#clip0_970_2024)">
<path d="M61.4558 10.5441C54.6563 3.7447 45.6159 0 36 0C26.3839 0 17.3434 3.7447 10.5441 10.5441C3.74456 17.3436 0 26.3841 0 36C0 45.6159 3.74456 54.6563 10.5441 61.4558C17.3436 68.2553 26.3839 72 36 72C45.6159 72 54.6563 68.2553 61.4558 61.4558C68.2553 54.6563 72 45.6159 72 36C72 26.3841 68.2553 17.3437 61.4558 10.5441ZM36 67.7812C18.4757 67.7812 4.21875 53.5243 4.21875 36C4.21875 18.4757 18.4757 4.21875 36 4.21875C53.5243 4.21875 67.7812 18.4757 67.7812 36C67.7812 53.5243 53.5243 67.7812 36 67.7812Z" fill="black"/>
<path d="M53.0163 24.4489C52.1926 23.6254 50.857 23.6254 50.0333 24.449L31.4063 43.0761L21.6009 33.2707C20.7773 32.4471 19.4416 32.4471 18.6178 33.2707C17.7941 34.0944 17.7941 35.43 18.6178 36.2538L29.9147 47.5506C30.3266 47.9625 30.8664 48.1684 31.4061 48.1684C31.9459 48.1684 32.4859 47.9624 32.8976 47.5506L53.0163 27.432C53.84 26.6083 53.84 25.2727 53.0163 24.4489Z" fill="black"/>
</g>
<defs>
<clipPath id="clip0_970_2024">
<rect width="72" height="72" fill="white"/>
</clipPath>
</defs>
</svg>
