<svg width="72" height="72" viewBox="0 0 72 72" fill="none" xmlns="http://www.w3.org/2000/svg">
<circle cx="36" cy="36" r="34.75" fill="white" stroke="#6C757D" stroke-width="2.5"/>
<path d="M48.7064 38.7188H42.3618V58.4726H46.5797V51.4076H48.7064C52.2047 51.4076 55.0507 48.5615 55.0507 45.0632C55.0507 41.5649 52.2047 38.7188 48.7064 38.7188ZM48.7064 47.1897H46.5797V42.9367H48.7064C49.879 42.9367 50.8328 43.8906 50.8328 45.0632C50.8328 46.2358 49.879 47.1897 48.7064 47.1897Z" fill="#6C757D"/>
<path d="M33.8906 38.7178H38.1085V58.4724H33.8906V38.7178Z" fill="#6C757D"/>
<path d="M23.434 49.2375L20.5003 39.0601L16.4473 40.2283L21.7066 58.4726H25.1615L30.4206 40.2283L26.3678 39.0601L23.434 49.2375Z" fill="#6C757D"/>
<path d="M47.0594 15.8119L40.0192 20.2389L35.9999 14.1221L31.9807 20.2389L24.9404 15.8119L27.0511 34.465H44.9486L47.0594 15.8119ZM41.1811 30.2471H30.8187L30.1174 24.0498L33.2352 26.0104L35.9998 21.803L38.7644 26.0104L41.8822 24.0498L41.1811 30.2471Z" fill="#6C757D"/>
</svg>
